<?xml version="1.0" encoding="UTF-8"?>
<svg width="32px" height="32px" viewBox="0 0 32 32" version="1.1" xmlns="http://www.w3.org/2000/svg" xmlns:xlink="http://www.w3.org/1999/xlink">
    <g id="Stylesheet" stroke="none" stroke-width="1" fill="none" fill-rule="evenodd">
        <g transform="translate(3.000000, 4.000000)">
            <path d="M23.7301587,1.93452381 C23.4722222,0.773809524 22.4404762,0 21.2797619,0 L4.64285714,0 C3.48214286,0 2.32142857,0.773809524 2.06349206,1.93452381 C1.41865079,5.15873016 0,10.9623016 0,11.6071429 C0,13.0257937 1.16071429,14.1865079 2.57936508,14.1865079 C3.3531746,14.1865079 3.99801587,13.7996032 4.38492063,13.2837302 C5.15873016,13.7996032 6.06150794,14.1865079 7.09325397,14.1865079 C8.25396825,14.1865079 9.28571429,13.7996032 10.1884921,13.0257937 C10.8333333,13.7996032 11.8650794,14.1865079 12.8968254,14.1865079 C13.9285714,14.1865079 14.9603175,13.7996032 15.6051587,13.0257937 C16.3789683,13.7996032 17.4107143,14.1865079 18.7003968,14.1865079 C19.7321429,14.1865079 20.6349206,13.7996032 21.4087302,13.2837302 C21.9246032,13.7996032 22.4404762,14.1865079 23.2142857,14.1865079 C24.6329365,14.1865079 25.7936508,13.0257937 25.7936508,11.6071429 C25.7936508,10.9623016 24.375,5.15873016 23.7301587,1.93452381 Z M7.09325397,11.6071429 C6.31944444,11.6071429 5.67460317,11.2202381 5.28769841,10.5753968 C5.67460317,8.38293651 6.4484127,3.86904762 6.4484127,3.86904762 L10.3174603,3.86904762 L9.15674603,9.54365079 C9.15674603,9.54365079 9.15674603,9.54365079 9.15674603,9.54365079 C9.02777778,10.7043651 8.25396825,11.6071429 7.09325397,11.6071429 Z M18.7003968,11.6071429 C17.5396825,11.6071429 16.765873,10.7043651 16.6369048,9.54365079 C16.6369048,9.54365079 16.6369048,9.54365079 16.6369048,9.54365079 L15.4761905,3.86904762 L19.3452381,3.86904762 C19.3452381,3.86904762 20.1190476,8.38293651 20.5059524,10.5753968 C20.1190476,11.2202381 19.4742063,11.6071429 18.7003968,11.6071429 Z" id="Shape" fill="currentColor" fill-rule="nonzero"></path>
            <path d="M2.57936508,15.4761905 L2.57936508,21.9246032 C2.57936508,23.343254 3.74007937,24.5039683 5.15873016,24.5039683 L20.6349206,24.5039683 C22.0535714,24.5039683 23.2142857,23.343254 23.2142857,21.9246032 L23.2142857,15.4761905" id="Path" stroke="currentColor" stroke-width="2.57936508"></path>
            <rect id="Rectangle" fill="currentColor" fill-rule="nonzero" x="6.4484127" y="15.4761905" width="5.15873016" height="5.15873016"></rect>
            <rect id="Rectangle" fill="currentColor" fill-rule="nonzero" x="14.1865079" y="15.4761905" width="5.15873016" height="9.02777778"></rect>
        </g>
    </g>
</svg>
