<?xml version="1.0" encoding="UTF-8"?>
<svg width="32px" height="32px" viewBox="0 0 32 32" version="1.1" xmlns="http://www.w3.org/2000/svg" xmlns:xlink="http://www.w3.org/1999/xlink">
    <path d="M28.9376,25.0793651 C28.9376,27.2460317 27.1696,29 24.9856,29 L24.9856,29 L16.0624,29 C13.8784,29 12.1104,27.2460317 12.1104,25.0793651 L12.1104,25.0793651 Z M21.6576,7.27142857 L20.992,13.5650794 L16.0624,13.5650794 C13.296,13.5650794 11.0496,15.7936508 11.0496,18.5380952 L11.0496,18.5380952 L11.0496,19.5904762 L12.6096,19.5904762 C11.6736,19.9206349 11.008,20.8079365 11.008,21.8396825 C11.008,22.8301587 11.5904,23.6555556 12.4432,24.0269841 L12.4432,24.0269841 L11.0496,24.0269841 L11.0496,25.0793651 C11.0496,26.668254 11.8192,28.0920635 12.984,29 L12.984,29 L6.3072,29 L3.9984,7.27142857 L21.6576,7.27142857 Z M27.648,20.5190476 C28.3968,20.5190476 29,21.1174603 29,21.8603175 C29,22.6031746 28.3968,23.2015873 27.648,23.2015873 L27.648,23.2015873 L13.4,23.2015873 C12.6512,23.2015873 12.048,22.6031746 12.048,21.8603175 C12.048,21.1174603 12.6512,20.5190476 13.4,20.5190476 L13.4,20.5190476 Z M24.9856,14.6380952 C27.1696,14.6380952 28.9376,16.3920635 28.9376,18.5587302 L28.9376,18.5587302 L12.1104,18.5587302 L12.1155384,18.3568552 C12.2213062,16.2841533 13.94665,14.6380952 16.0624,14.6380952 L16.0624,14.6380952 Z M21.2624,3 L22.656,6.26031746 L3,6.26031746 L4.4144,3 L21.2624,3 Z" id="Combined-Shape" fill="currentColor" fill-rule="nonzero"></path>
</svg>
