<?xml version="1.0" encoding="UTF-8"?>
<svg width="32px" height="32px" viewBox="0 0 32 32" version="1.1" xmlns="http://www.w3.org/2000/svg" xmlns:xlink="http://www.w3.org/1999/xlink">
    <path d="M27.6662654,24.2758533 C28.4026886,24.2758533 29,24.8860551 29,25.6374826 C29,26.38891 28.4026886,27 27.6662654,27 L27.6662654,27 L4.33373462,27 C3.59818085,27 3,26.38891 3,25.6374826 C3,24.8860551 3.5973114,24.2758533 4.33373462,24.2758533 L4.33373462,24.2758533 Z M16,6 C17.4902354,6 18.6987694,7.2346149 18.6987694,8.75789874 C18.6987694,9.41339931 18.4657571,10.0085015 18.0910246,10.4810303 C23.7893927,11.4944804 28.1253344,16.5590661 28.1262039,22.670854 L28.1262039,22.670854 L3.87553505,22.670854 C3.87553505,16.5590661 8.21147673,11.4944804 13.9098448,10.4810303 C13.5351124,10.0085015 13.3012306,9.41339931 13.3012306,8.75789874 C13.3012306,7.23550311 14.5097646,6 16,6 Z M16,7.7391194 C15.4496388,7.7391194 15.0036116,8.19654866 15.0036116,8.75789874 C15.0036116,9.31924883 15.4496388,9.77578987 16,9.77578987 C16.5503612,9.77578987 16.9963884,9.31836061 16.9963884,8.75701053 C16.9963884,8.19566045 16.5503612,7.7391194 16,7.7391194 Z" id="shape" fill="currentColor"></path>
</svg>
