<?xml version="1.0" encoding="UTF-8"?>
<svg width="32px" height="32px" viewBox="0 0 32 32" version="1.1" xmlns="http://www.w3.org/2000/svg" xmlns:xlink="http://www.w3.org/1999/xlink">
    <path d="M16.461239,3 C17.075668,3 17.5736634,3.49001351 17.5736634,4.09459459 L17.5736634,4.09459459 L17.5736634,8.16940541 C18.4424668,8.25478378 19.2797516,8.44378378 20.0784723,8.71487838 L20.0784723,8.71487838 L19.9286658,8.7447973 C19.445132,8.84075676 19.1073258,9.24685135 19.1073258,9.73212162 C19.1073258,10.2173919 19.445132,10.6234865 19.9286658,10.7194459 L19.9286658,10.7194459 L20.7388815,10.8803514 C21.4545412,12.0023108 22.0107534,13.4176216 22.3578298,15.0409054 L22.3578298,15.0409054 L25.1974785,15.0409054 C24.8919326,14.3983784 24.5077754,13.8007297 24.0702218,13.2465 C24.1251014,13.1527297 24.1666319,13.049473 24.189622,12.9374595 L24.189622,12.9374595 L24.4855269,11.4936892 C25.4755846,12.509473 26.2724513,13.7095135 26.8075274,15.0405405 L26.8075274,15.0405405 L26.8438666,15.0405405 L26.8438666,15.131027 C27.3210967,16.3500405 27.5854829,17.6719459 27.5854829,19.0540541 C27.5854829,25.0896486 22.595147,30 16.461239,30 C13.1662379,30 10.2023685,28.5817703 8.16366544,26.3342027 L8.16366544,26.3342027 L9.89274375,25.9912297 C10.6599458,26.6950541 11.5420983,27.278473 12.5113908,27.7075541 C11.6945005,26.5994595 11.0515192,25.1396351 10.6458551,23.4324324 L10.6458551,23.4324324 L8.07800876,23.4324324 L7.64861295,23.3470541 L7.17360773,21.030527 C7.0671858,20.5113243 6.61702473,20.1486486 6.07861132,20.1486486 C5.8312823,20.1486486 5.60434773,20.2281892 5.41894366,20.3613649 C5.36703052,19.9322838 5.33699506,19.4966351 5.33699506,19.0540541 C5.33699506,13.3877027 9.73515029,8.71378378 15.3488146,8.16283784 L15.3488146,8.16283784 L15.3488146,4.09459459 C15.3488146,3.49001351 15.8468099,3 16.461239,3 Z M6.4468238,21.1746486 L6.96966326,23.7261486 C6.99932791,23.8717297 7.11539085,23.9859324 7.2633433,24.0151216 L9.85640455,24.5295811 C10.2579898,24.6091216 10.2579898,25.1742973 9.85640455,25.2538378 L7.2633433,25.7682973 C7.11502005,25.7978514 6.99932791,25.9116892 6.96966326,26.0572703 L6.4468238,28.6087703 C6.36598762,29.0039189 5.79160583,29.0039189 5.71076966,28.6087703 L5.1879302,26.0572703 C5.15789474,25.9113243 5.0422026,25.7974865 4.89425016,25.7682973 L2.3011889,25.2538378 C1.8996037,25.1742973 1.8996037,24.6091216 2.3011889,24.5295811 L4.89425016,24.0151216 C5.04257341,23.9855676 5.15826554,23.8717297 5.1879302,23.7261486 L5.71076966,21.1746486 C5.79160583,20.7795 6.36598762,20.7795 6.4468238,21.1746486 Z M15.7196227,23.4324324 L12.1850796,23.4324324 C12.8803449,26.0554459 14.1789149,27.9604054 15.7196227,28.428527 L15.7196227,28.428527 L15.7196227,23.4324324 Z M20.7373983,23.4324324 L17.2028552,23.4324324 L17.2028552,28.428527 C18.743563,27.9604054 20.0421331,26.0554459 20.7373983,23.4324324 L20.7373983,23.4324324 Z M15.7196227,16.5 L11.819092,16.5 C11.7037707,17.3129189 11.6407333,18.1688919 11.6407333,19.0540541 C11.6407333,20.0727568 11.7234235,21.0531486 11.8743424,21.972973 L11.8743424,21.972973 L15.7196227,21.972973 L15.7196227,16.5 Z M25.7459037,16.5 L22.6047881,16.5 C22.7086143,17.3147432 22.7649772,18.1681622 22.7649772,19.0540541 C22.7649772,20.0727568 22.6915572,21.0498649 22.554729,21.972973 L22.554729,21.972973 L25.6350321,21.972973 C25.9372407,21.0531486 26.1022503,20.0727568 26.1022503,19.0540541 C26.1022503,18.1688919 25.9765464,17.3129189 25.7459037,16.5 L25.7459037,16.5 Z M12.5113908,10.4005541 C10.4059422,11.3327838 8.70244965,12.9852568 7.72537023,15.0405405 L7.72537023,15.0405405 L10.5650189,15.0405405 C10.9632668,13.1768108 11.637396,11.5867297 12.5113908,10.4005541 Z M17.2028552,9.67958108 L17.2028552,15.0405405 L20.8293587,15.0405405 C20.1611625,12.2299865 18.8140165,10.1692297 17.2028552,9.67958108 L17.2028552,9.67958108 Z M23.4624673,6.67054054 L23.9011333,8.81083784 C23.9237526,8.9202973 24.0105217,9.00604054 24.1217641,9.02793243 L26.2969246,9.45956757 C26.5987624,9.51940541 26.5987624,9.94374324 26.2969246,10.0035811 L24.1217641,10.4352162 C24.0105217,10.457473 23.9233818,10.5428514 23.9011333,10.6523108 L23.4624673,12.7926081 C23.4016547,13.0896081 22.9704049,13.0896081 22.9095923,12.7926081 L22.4709263,10.6523108 C22.448307,10.5428514 22.3615379,10.4571081 22.2502955,10.4352162 L20.075135,10.0035811 C19.7732972,9.94374324 19.7732972,9.51940541 20.075135,9.45956757 L22.2502955,9.02793243 C22.3615379,9.00567568 22.4486778,8.9202973 22.4709263,8.81083784 L22.9095923,6.67054054 C22.9704049,6.37354054 23.4016547,6.37354054 23.4624673,6.67054054 Z M27.9592575,4.74733784 L28.2518251,6.17432432 C28.2670282,6.2472973 28.3248743,6.30458108 28.3990359,6.31917568 L29.8492665,6.60705405 C30.0502445,6.64682432 30.0502445,6.92995946 29.8492665,6.96972973 L28.3990359,7.25760811 C28.3248743,7.2722027 28.2670282,7.32948649 28.2518251,7.40245946 L27.9592575,8.82944595 C27.9188394,9.0272027 27.6310923,9.0272027 27.5906742,8.82944595 L27.2981066,7.40245946 C27.2832742,7.32948649 27.2250574,7.27256757 27.1508957,7.25760811 L25.7006651,6.96972973 C25.4996871,6.92995946 25.4996871,6.64682432 25.7006651,6.60705405 L27.1508957,6.31917568 C27.2250574,6.30458108 27.2829034,6.2472973 27.2981066,6.17432432 L27.5906742,4.74733784 C27.6310923,4.54958108 27.9188394,4.54958108 27.9592575,4.74733784 Z" id="Combined-Shape" fill="currentColor"></path>
</svg>
