<?xml version="1.0" encoding="UTF-8"?>
<svg width="32px" height="32px" viewBox="0 0 32 32" version="1.1" xmlns="http://www.w3.org/2000/svg" xmlns:xlink="http://www.w3.org/1999/xlink">
    <path d="M30,19.8128735 L26.3671556,16.2285954 L26.3671556,9.3841164 L24.4966622,9.3841164 L24.4966622,14.3830932 L16,6 L2,19.8128735 L3.32272,21.1175923 L5.63284444,18.83834 L5.63284444,27 L26.3671556,27 L26.3671556,18.8380945 L28.6775911,21.117623 L30,19.8128735 Z M14.9436222,25.1188917 L14.9436222,21.2031698 L17.0565644,21.2031698 L17.0565644,25.1188917 L14.9436222,25.1188917 L14.9436222,25.1188917 Z M24.4966622,25.1545592 L18.9270267,25.1545592 L18.9270267,19.357729 L13.0731289,19.357729 L13.0731289,25.1545592 L7.50333778,25.1545592 L7.50333778,16.9928685 L16,8.60974462 L24.4966622,16.9926537 L24.4966622,25.1545592 Z" id="Shape" fill="currentColor" fill-rule="nonzero"></path>
</svg>
