<?xml version="1.0" encoding="UTF-8"?>
<svg width="32px" height="32px" viewBox="0 0 32 32" version="1.1" xmlns="http://www.w3.org/2000/svg" xmlns:xlink="http://www.w3.org/1999/xlink">
    <path d="M29.7289409,16.6050457 L24.9148967,11.7194432 L24.9148967,6.01957373 C24.9148967,5.47672901 24.5583008,5.11483254 24.023407,5.11483254 L20.4574484,5.11483254 C19.9225546,5.11483254 19.5659587,5.47672901 19.5659587,6.01957373 L19.5659587,6.29099609 L16.6240428,3.30535015 C16.5348938,3.21487603 16.3565959,3.12440191 16.1782979,3.03392779 C15.910851,2.94345368 15.5542552,3.03392779 15.3759572,3.30535015 L2.27105907,16.6050457 C2.00361217,16.876468 1.9144632,17.2383645 2.09276114,17.600261 C2.1819101,17.9621575 2.53850597,18.1431057 2.89510184,18.1431057 C2.89510184,18.1431057 2.89510184,18.1431057 2.89510184,18.1431057 L4.41063428,18.1431057 L4.41063428,28.0952588 C4.41063428,28.6381035 4.76723015,29 5.30212395,29 L16,29 L21.527236,29 L26.697876,29 C27.2327699,29 27.5893657,28.6381035 27.5893657,28.0952588 L27.5893657,18.1431057 L29.1048982,18.1431057 C29.461494,18.1431057 29.8180899,17.9621575 29.9072389,17.600261 C30.0855368,17.3288386 29.9963878,16.876468 29.7289409,16.6050457 Z M21.348938,6.92431492 L23.1319174,6.92431492 L23.1319174,9.90996085 L21.348938,8.10047847 L21.348938,6.92431492 Z M16,5.20530666 L26.965323,16.3336233 L24.3800029,16.3336233 L16.6240428,8.46237495 C16.2674469,8.10047847 15.7325531,8.10047847 15.3759572,8.46237495 L7.6199971,16.3336233 L5.03467705,16.3336233 L16,5.20530666 Z M11.8991475,14.5241409 L20.1008525,14.5241409 L21.8838318,16.3336233 L10.1161682,16.3336233 L11.8991475,14.5241409 Z M13.6821269,12.7146585 L16,10.3623314 L18.3178731,12.7146585 L13.6821269,12.7146585 Z M15.1085103,23.5715528 L6.19361362,23.5715528 L6.19361362,21.7620705 L15.1085103,21.7620705 L15.1085103,23.5715528 Z M6.19361362,25.3810352 L15.1085103,25.3810352 L15.1085103,27.1905176 L6.19361362,27.1905176 L6.19361362,25.3810352 Z M16.8914897,27.1905176 L16.8914897,20.8573293 L20.6357463,20.8573293 L20.6357463,27.1905176 L16.8914897,27.1905176 Z M22.3295767,21.7620705 L25.8063864,21.7620705 L25.8063864,23.5715528 L22.3295767,23.5715528 L22.3295767,21.7620705 Z M22.3295767,27.1905176 L22.3295767,25.3810352 L25.8063864,25.3810352 L25.8063864,27.1905176 L22.3295767,27.1905176 Z M25.8063864,19.9525881 L22.3295767,19.9525881 C22.3295767,19.4097434 21.9729808,19.0478469 21.438087,19.0478469 L16,19.0478469 C15.4651062,19.0478469 15.1085103,19.4097434 15.1085103,19.9525881 L6.19361362,19.9525881 L6.19361362,18.1431057 L7.97659296,18.1431057 L7.97659296,18.1431057 L24.023407,18.1431057 L24.023407,18.1431057 L25.8063864,18.1431057 L25.8063864,19.9525881 Z" id="Shape" fill="currentColor"></path>
</svg>
