<?xml version="1.0" encoding="UTF-8"?>
<svg width="32px" height="32px" viewBox="0 0 32 32" version="1.1" xmlns="http://www.w3.org/2000/svg" xmlns:xlink="http://www.w3.org/1999/xlink">
    <path d="M16,3 L20.5900859,6.4323309 L20.5900859,4.57031364 L25.104082,4.57031364 L25.104082,9.80782413 L29,12.7211014 L29,30 L3,30 L3,12.7211014 L16,3 Z M16.0000007,5.86921635 L5.3002837,13.8704407 L5.3002837,27.691079 L18.1112301,27.691079 L18.1112301,20.9046753 L22.8020188,20.9046753 L22.8020188,27.691079 L26.6998118,27.691079 L26.6998118,13.8704407 L16.0000007,5.86921635 Z M13.8893126,20.9046638 L13.8893126,25.6132836 L9.1984957,25.6132836 L9.1984957,20.9046638 L13.8893126,20.9046638 Z M13.8893126,13.805024 L13.8893126,18.5136437 L9.1984957,18.5136437 L9.1984957,13.805024 L13.8893126,13.805024 Z M22.8020333,13.805024 L22.8020333,18.5136437 L18.1112164,18.5136437 L18.1112164,13.805024 L22.8020333,13.805024 Z" id="Combined-Shape" fill="currentColor"></path>
</svg>
