<?xml version="1.0" encoding="UTF-8"?>
<svg width="32px" height="32px" viewBox="0 0 32 32" version="1.1" xmlns="http://www.w3.org/2000/svg" xmlns:xlink="http://www.w3.org/1999/xlink">
    <path d="M16,7 L20.76,10.7254545 L23.4872,8.58727273 L30,13.6818182 L30,25 L2,25 L2,13.6818182 L8.5128,8.58727273 L11.24,10.7254545 L16,7 Z M8.5128,10.5672727 L3.5792,14.4290909 L3.5792,23.4509091 L8.8656,23.4509091 L8.8656,12.58 L9.9744,11.7127273 L8.5128,10.5672727 Z M16,8.98 L10.4504,13.3272727 L10.4504,23.4509091 L21.5496,23.4509091 L21.5496,13.3272727 L16,8.98 Z M23.4872,10.5672727 L22.0256,11.7127273 L23.1344,12.58 L23.1344,23.4509091 L28.4208,23.4509091 L28.4208,14.4290909 L23.4872,10.5672727 Z M15.5464,18.3181818 L15.5464,21.1490909 L13.144,21.1490909 L13.144,18.3181818 L15.5464,18.3181818 Z M18.856,18.3181818 L18.856,21.1490909 L16.4536,21.1490909 L16.4536,18.3181818 L18.856,18.3181818 Z M15.5464,14.5981818 L15.5464,17.4290909 L13.144,17.4290909 L13.144,14.5981818 L15.5464,14.5981818 Z M18.856,14.5981818 L18.856,17.4290909 L16.4536,17.4290909 L16.4536,14.5981818 L18.856,14.5981818 Z" id="Combined-Shape" fill="currentColor"></path>
</svg>
