<?xml version="1.0" encoding="UTF-8"?>
<svg width="32px" height="32px" viewBox="0 0 32 32" version="1.1" xmlns="http://www.w3.org/2000/svg" xmlns:xlink="http://www.w3.org/1999/xlink">
    <path d="M15.155,3.3120845 C15.6414912,2.89597183 16.3585088,2.89597183 16.845,3.3120845 L16.845,3.3120845 L25.945,11.1120588 C26.2979784,11.4139473 26.4630878,11.8812148 26.3781331,12.3378463 C26.2931784,12.7944778 25.9710662,13.1711 25.5331331,13.325843 C25.0952,13.4805861 24.6079784,13.3899408 24.255,13.0880523 L24.255,13.0880523 L23.8,12.6980536 L23.8,14.2710485 L27.44,19.1200325 C27.6087688,19.3450568 27.7,19.6187496 27.7,19.9000299 L27.7,19.9000299 L27.7,26.4000086 C28.4179702,26.4000086 29,26.9820365 29,27.7000043 C29,28.4179721 28.4179702,29 27.7,29 L27.7,29 L4.3,29 C3.58202983,29 3,28.4179721 3,27.7000043 C3,26.9820365 3.58202983,26.4000086 4.3,26.4000086 L4.3,26.4000086 L4.3,19.9000299 C4.3,19.6187496 4.39123123,19.3450568 4.56,19.1200325 L4.56,19.1200325 L8.2,14.2710485 L8.2,12.6980536 L7.745,13.0880523 C7.19934267,13.5547314 6.37868061,13.4907084 5.912,12.9450528 C5.44531939,12.3993973 5.50934267,11.5787379 6.055,11.1120588 L6.055,11.1120588 Z M18.6,21.2000257 L13.4,21.2000257 L13.4,26.4000086 L18.6,26.4000086 L18.6,21.2000257 Z M16,6.01607561 L10.8,10.4750609 L10.8,14.700047 C10.8,14.9813274 10.7087688,15.2550202 10.54,15.4800445 L10.54,15.4800445 L6.9,20.3290285 L6.9,26.4000086 L10.8,26.4000086 L10.8,19.9000299 C10.8,19.1820621 11.3820298,18.6000342 12.1,18.6000342 L12.1,18.6000342 L19.9,18.6000342 C20.6179702,18.6000342 21.2,19.1820621 21.2,19.9000299 L21.2,19.9000299 L21.2,26.4000086 L25.1,26.4000086 L25.1,20.3290285 L21.46,15.4800445 C21.2912312,15.2550202 21.2,14.9813274 21.2,14.700047 L21.2,14.700047 L21.2,10.4750609 L16,6.01607561 Z M16,10 C17.9329966,10 19.5,11.5670034 19.5,13.5 C19.5,15.4329966 17.9329966,17 16,17 C14.0670034,17 12.5,15.4329966 12.5,13.5 C12.5,11.5670034 14.0670034,10 16,10 Z M16,12.3333333 C15.3556678,12.3333333 14.8333333,12.8556678 14.8333333,13.5 C14.8333333,14.1443322 15.3556678,14.6666667 16,14.6666667 C16.6443322,14.6666667 17.1666667,14.1443322 17.1666667,13.5 C17.1666667,12.8556678 16.6443322,12.3333333 16,12.3333333 Z" id="Combined-Shape" fill="currentColor"></path>
</svg>
