<?xml version="1.0" encoding="UTF-8"?>
<svg width="28px" height="28px" viewBox="0 0 28 28" version="1.1" xmlns="http://www.w3.org/2000/svg" xmlns:xlink="http://www.w3.org/1999/xlink">
    <path d="M26.2058824,13.2864291 L20.4191176,10.8231335 L20.4191176,3.31559683 C20.4206758,2.88762955 20.2117422,2.48624725 19.8602941,2.24204115 C19.512594,1.99203128 19.0633019,1.93138915 18.6617647,2.08027248 L9.45588235,5.36711763 C8.94461329,5.56178524 8.60965969,6.05541316 8.61764706,6.60244198 L8.61764706,11.6981549 L3.75735294,9.97017146 C3.3540168,9.83022445 2.90794328,9.89343222 2.55936217,10.1399245 C2.21078105,10.3864167 2.00250178,10.7859216 2,11.2128489 L2,25.6837913 C2.00401801,26.4090424 2.59094311,26.9959819 3.31617647,27 L25.6838235,27 C26.4090569,26.9959819 26.995982,26.4090424 27,25.6837913 L27,14.4996941 C26.9981799,13.973912 26.6869977,13.498483 26.2058824,13.2864291 Z M4.63235294,13.0805417 L8.61764706,14.4996941 L8.61764706,24.3675826 L4.63235294,24.3675826 L4.63235294,13.0805417 Z M15.1544118,24.3675826 L11.2132353,24.3675826 L11.2132353,7.52893524 L17.7867647,5.1832896 L17.7867647,24.3675826 L15.1544118,24.3675826 Z M24.3676471,24.3675826 L20.4191176,24.3675826 L20.4191176,13.6761445 L24.3676471,15.3673624 L24.3676471,24.3675826 Z" id="Shape" fill="currentColor"></path>
</svg>
