<?xml version="1.0" encoding="UTF-8"?>
<svg width="32px" height="32px" viewBox="0 0 32 32" version="1.1" xmlns="http://www.w3.org/2000/svg" xmlns:xlink="http://www.w3.org/1999/xlink">
    <path d="M30,19.4006309 L25.3037975,19.4006309 L25.3037975,12.4227129 L26.4556962,12.4227129 L26.4556962,10.6561514 L22.1139241,10.6561514 L22.1139241,3.76656151 L23,3.76656151 L23,2 L9,2 L9,3.76656151 L9.88607595,3.76656151 L9.88607595,10.7444795 L5.5443038,10.7444795 L5.5443038,12.511041 L6.07594937,12.511041 L6.07594937,19.488959 L2,19.488959 L2,21.2555205 L2.88607595,21.2555205 L2.88607595,30 L29.1139241,30 L29.1139241,21.2555205 L30,21.2555205 L30,19.4006309 Z M11.6582278,3.76656151 L20.4303797,3.76656151 L20.4303797,10.7444795 L17.6835443,10.7444795 L17.6835443,8.35962145 C17.6835443,7.47634069 16.9746835,6.76971609 16.0886076,6.76971609 C15.2025316,6.76971609 14.4936709,7.47634069 14.4936709,8.35962145 L14.4936709,10.7444795 L11.7468354,10.7444795 L11.7468354,3.76656151 L11.6582278,3.76656151 Z M7.84810127,12.511041 L23.6202532,12.511041 L23.6202532,19.488959 L20.7848101,19.488959 L20.7848101,17.1041009 C20.7848101,16.2208202 20.0759494,15.5141956 19.1898734,15.5141956 C18.3037975,15.5141956 17.5949367,16.2208202 17.5949367,17.1041009 L17.5949367,19.488959 L13.9620253,19.488959 L13.9620253,17.1041009 C13.9620253,16.2208202 13.2531646,15.5141956 12.3670886,15.5141956 C11.4810127,15.5141956 10.7721519,16.2208202 10.7721519,17.1041009 L10.7721519,19.488959 L7.84810127,19.488959 L7.84810127,12.511041 Z M27.3417722,28.1451104 L24.4177215,28.1451104 L24.4177215,25.7602524 C24.4177215,24.8769716 23.7088608,24.170347 22.8227848,24.170347 C21.9367089,24.170347 21.2278481,24.8769716 21.2278481,25.7602524 L21.2278481,28.1451104 L17.5949367,28.1451104 L17.5949367,25.7602524 C17.5949367,24.8769716 16.8860759,24.170347 16,24.170347 C15.1139241,24.170347 14.4050633,24.8769716 14.4050633,25.7602524 L14.4050633,28.1451104 L10.7721519,28.1451104 L10.7721519,25.7602524 C10.7721519,24.8769716 10.0632911,24.170347 9.17721519,24.170347 C8.29113924,24.170347 7.58227848,24.8769716 7.58227848,25.7602524 L7.58227848,28.1451104 L4.65822785,28.1451104 L4.65822785,21.1671924 L27.4303797,21.1671924 L27.4303797,28.1451104 L27.3417722,28.1451104 Z" id="Shape" fill="currentColor"></path>
</svg>
