<?xml version="1.0" encoding="UTF-8"?>
<svg width="32px" height="32px" viewBox="0 0 32 32" version="1.1" xmlns="http://www.w3.org/2000/svg" xmlns:xlink="http://www.w3.org/1999/xlink">
    <path d="M25.3267606,4 C26.0826291,4 26.6971831,4.6192053 26.6971831,5.3807947 L26.697,22.622 L30,22.6225166 L30,24.6092715 L13.3215962,24.6092715 C12.8713615,26.5496689 11.1394366,28 9.07887324,28 C7.01502347,28 5.27981221,26.5463576 4.83286385,24.602649 L4.83286385,24.602649 L3.37042254,24.602649 C2.61455399,24.602649 2,23.9834437 2,23.2218543 L2,10.7615894 C2,7.03311258 5.01032864,4 8.71079812,4 L25.3267606,4 Z M9.07558685,21.205298 L8.91259414,21.2108599 C7.67361274,21.2956793 6.68967136,22.3399558 6.68967136,23.6092715 C6.68967136,24.9337748 7.76103286,26.013245 9.07558685,26.013245 C10.3901408,26.013245 11.4615023,24.9337748 11.4615023,23.6092715 C11.4615023,22.2847682 10.3901408,21.205298 9.07558685,21.205298 L9.07558685,21.205298 Z M9.07230047,22.3311258 C9.77230047,22.3311258 10.3408451,22.9039735 10.3408451,23.6092715 C10.3408451,24.3145695 9.77230047,24.8874172 9.07230047,24.8874172 C8.37230047,24.8874172 7.80375587,24.3145695 7.80375587,23.6092715 C7.80375587,22.9039735 8.37230047,22.3311258 9.07230047,22.3311258 Z M24.7220657,5.98675497 L8.71079812,5.98675497 C6.09812207,5.98675497 3.97183099,8.12913907 3.97183099,10.7615894 L3.97183099,22.615894 L4.82957746,22.615894 L4.88036962,22.4166084 L4.88036962,22.4166084 L4.9084507,22.3245033 C4.91173709,22.307947 4.91502347,22.294702 4.92159624,22.2781457 C4.94131455,22.218543 4.96103286,22.1589404 4.98075117,22.102649 L4.98075117,22.102649 L5.00046948,22.0529801 L5.00046948,22.0529801 L5.00858243,22.0294743 L5.00858243,22.0294743 L5.0399061,21.9536424 L5.0399061,21.9536424 L5.05962441,21.9039735 C5.07276995,21.8708609 5.08920188,21.8377483 5.10234742,21.8046358 C5.10892019,21.7847682 5.11877934,21.7649007 5.1286385,21.7450331 C5.14178404,21.7152318 5.15492958,21.6887417 5.16807512,21.6589404 C5.18122066,21.6324503 5.1943662,21.6059603 5.20751174,21.5794702 C5.21737089,21.5596026 5.23051643,21.5364238 5.24037559,21.5165563 C5.24366197,21.5066225 5.25023474,21.5 5.25352113,21.4900662 C5.26338028,21.4668874 5.27652582,21.4437086 5.28967136,21.4205298 L5.28967136,21.4205298 L5.29295775,21.4172185 L5.33896714,21.3377483 L5.33896714,21.3377483 L5.38826291,21.2615894 C5.40469484,21.2350993 5.42112676,21.2119205 5.43755869,21.1854305 C5.457277,21.1589404 5.47370892,21.1357616 5.49014085,21.1092715 C5.50985915,21.0860927 5.52629108,21.0596026 5.542723,21.0364238 C5.55586854,21.0165563 5.56901408,20.9966887 5.58215962,20.9801325 C5.58544601,20.9768212 5.59201878,20.9701987 5.59530516,20.9635762 C5.61173709,20.9437086 5.62816901,20.9205298 5.64460094,20.9006623 C5.64788732,20.8940397 5.65446009,20.8907285 5.65774648,20.884106 L5.65774648,20.884106 L5.70704225,20.8245033 C5.72676056,20.8013245 5.74647887,20.7781457 5.76619718,20.7549669 C5.82206573,20.6854305 5.88450704,20.6192053 5.94694836,20.5529801 C5.96666667,20.5331126 5.98967136,20.5099338 6.00938967,20.4900662 C6.05211268,20.4470199 6.09812207,20.4039735 6.14084507,20.3642384 L6.14084507,20.3642384 C6.18685446,20.3211921 6.23286385,20.281457 6.27558685,20.2450331 C6.29859155,20.2251656 6.32159624,20.2086093 6.34460094,20.1887417 C6.38732394,20.1556291 6.42676056,20.1258278 6.46948357,20.0927152 L6.40807139,20.1390981 C6.42099289,20.1289978 6.43397207,20.118969 6.44700835,20.1090123 L6.46948357,20.0927152 C6.47934272,20.0827815 6.49248826,20.0728477 6.5056338,20.0629139 C6.54178404,20.0364238 6.57793427,20.013245 6.61408451,19.986755 C6.62394366,19.9834437 6.63051643,19.9768212 6.64037559,19.9701987 C6.66995305,19.9503311 6.69953052,19.9304636 6.72910798,19.910596 C6.72978792,19.9102535 6.73046786,19.909907 6.73114781,19.9095567 C6.75454078,19.8942091 6.77810013,19.8793264 6.80180856,19.8646656 C6.82149191,19.8523399 6.84267084,19.8411516 6.86384977,19.8278146 C6.88685446,19.8112583 6.91314554,19.7980132 6.93943662,19.781457 C6.99201878,19.7516556 7.04788732,19.7218543 7.10046948,19.6953642 C7.12347418,19.6821192 7.14976526,19.6688742 7.17276995,19.6589404 C7.17605634,19.6556291 7.18262911,19.6523179 7.18920188,19.6490066 C7.21549296,19.6357616 7.23849765,19.6258278 7.26478873,19.6125828 C7.29107981,19.602649 7.32065728,19.589404 7.34694836,19.5761589 C7.37652582,19.5629139 7.40610329,19.5529801 7.43568075,19.5397351 C7.45868545,19.5298013 7.48169014,19.5231788 7.50469484,19.513245 C7.62957746,19.4635762 7.75446009,19.4205298 7.88262911,19.384106 L7.88262911,19.384106 L7.95492958,19.3642384 C7.98450704,19.3543046 8.01079812,19.3476821 8.04037559,19.3410596 L8.04037559,19.3410596 C8.06995305,19.3344371 8.09295775,19.3311258 8.11924883,19.3245033 C8.14553991,19.3178808 8.17511737,19.3112583 8.20469484,19.3046358 L8.20469484,19.3046358 L8.25070423,19.294702 C8.25399061,19.294702 8.25399061,19.294702 8.25399061,19.294702 L8.28562207,19.2880795 L8.28562207,19.2880795 L8.31971831,19.281457 C8.34929577,19.2748344 8.38215962,19.2682119 8.41173709,19.2649007 L8.41173709,19.2649007 L8.44788732,19.2599338 L8.44788732,19.2599338 L8.48403756,19.2549669 C8.4971831,19.2549669 8.50704225,19.2516556 8.52018779,19.2516556 L8.52018779,19.2516556 L8.58262911,19.2450331 C8.59248826,19.2450331 8.6056338,19.2417219 8.61549296,19.2417219 L8.65534038,19.236755 L8.65534038,19.236755 L8.69765258,19.2317881 C8.72723005,19.2284768 8.75680751,19.2251656 8.78638498,19.2251656 C8.81924883,19.2218543 8.84882629,19.218543 8.88169014,19.218543 L8.88169014,19.218543 L8.90798122,19.218543 C8.93098592,19.2152318 8.95399061,19.2152318 8.97699531,19.2152318 L9.17746479,19.2152318 C9.20046948,19.218543 9.22347418,19.218543 9.24647887,19.218543 L9.27276995,19.218543 C9.3056338,19.2218543 9.33849765,19.2218543 9.36807512,19.2251656 C9.39765258,19.2251656 9.42723005,19.2284768 9.45680751,19.2317881 L9.45680751,19.2317881 L9.53896714,19.2417219 C9.55211268,19.2417219 9.56197183,19.2450331 9.57511737,19.2450331 C9.59483568,19.2450331 9.61455399,19.2483444 9.6342723,19.2516556 C9.64741784,19.2549669 9.66056338,19.2549669 9.67370892,19.2582781 C9.69671362,19.2615894 9.71971831,19.2649007 9.742723,19.2682119 L9.742723,19.2682119 L9.83474178,19.2847682 C9.85446009,19.2880795 9.87746479,19.294702 9.90046948,19.2980132 C9.91724505,19.3007624 9.92633193,19.3025724 9.93540866,19.304411 L9.94976526,19.307947 L9.94976526,19.307947 L10.0131893,19.3213101 C10.0242972,19.3219279 10.0333855,19.3248712 10.0450704,19.3278146 C10.0680751,19.3344371 10.0910798,19.3377483 10.1140845,19.3443709 C10.143662,19.3509934 10.1699531,19.3609272 10.1995305,19.3675497 L10.1995305,19.3675497 L10.2549042,19.38198 C10.2850264,19.3905282 10.3150172,19.3993955 10.3448726,19.4085779 C10.4081783,19.4272029 10.4698169,19.4487008 10.5314554,19.4701987 C10.5446009,19.4768212 10.5610329,19.4801325 10.5774648,19.486755 C10.5938967,19.4933775 10.6103286,19.5 10.6267606,19.5066225 L10.6267606,19.5066225 L10.656338,19.5165563 C10.6760563,19.5231788 10.6957746,19.5298013 10.715493,19.5397351 C10.7746479,19.5629139 10.8338028,19.589404 10.8929577,19.615894 C10.9159624,19.6258278 10.9389671,19.6390728 10.9619718,19.6490066 C10.9685446,19.6523179 10.9751174,19.6556291 10.9816901,19.6589404 C11.0046948,19.6721854 11.0309859,19.6821192 11.0539906,19.6953642 L11.1357394,19.736755 L11.1357394,19.736755 L11.1558685,19.7483444 C11.1755869,19.7582781 11.1953052,19.7715232 11.2150235,19.781457 C11.2413146,19.7980132 11.2643192,19.8112583 11.2906103,19.8278146 C11.313615,19.8410596 11.3399061,19.8576159 11.3661972,19.8741722 C11.3859155,19.884106 11.4056338,19.897351 11.4253521,19.910596 C11.4549296,19.9304636 11.484507,19.9503311 11.5140845,19.9701987 C11.5239437,19.9735099 11.5305164,19.9801325 11.5403756,19.986755 L11.5403756,19.986755 L11.6488263,20.0629139 C11.6586854,20.0728477 11.671831,20.0827815 11.6849765,20.0927152 C11.7276995,20.1225166 11.7704225,20.1556291 11.8098592,20.1887417 C11.8328638,20.205298 11.8558685,20.2251656 11.8788732,20.2450331 C11.9248826,20.2847682 11.9676056,20.3211921 12.0103286,20.3609272 C12.0103286,20.3609272 12.013615,20.3642384 12.013615,20.3642384 C12.0596244,20.4039735 12.1023474,20.4470199 12.1450704,20.4900662 C12.1647887,20.5099338 12.1877934,20.5298013 12.2075117,20.5529801 C12.2699531,20.6192053 12.329108,20.6854305 12.3882629,20.7549669 C12.4079812,20.7781457 12.4276995,20.8013245 12.4474178,20.8245033 C12.4638498,20.8443709 12.4802817,20.8642384 12.4967136,20.884106 C12.5,20.8874172 12.5065728,20.8940397 12.5098592,20.9006623 C12.5262911,20.9205298 12.542723,20.9437086 12.5591549,20.9635762 C12.5624413,20.9668874 12.5690141,20.9735099 12.5723005,20.9801325 C12.585446,21 12.5985915,21.0165563 12.6117371,21.0364238 C12.6314554,21.0596026 12.6478873,21.0860927 12.6643192,21.1092715 C12.6840376,21.1357616 12.7004695,21.1589404 12.7169014,21.1854305 C12.7333333,21.2119205 12.7497653,21.2384106 12.7661972,21.2615894 C12.7826291,21.2847682 12.799061,21.3112583 12.815493,21.3377483 L12.815493,21.3377483 L12.8615023,21.4172185 C12.8615023,21.4172185 12.8647887,21.4205298 12.8647887,21.4205298 C12.8746479,21.4437086 12.8877934,21.4668874 12.900939,21.4900662 L12.900939,21.4900662 L12.9140845,21.5165563 C12.9239437,21.5364238 12.9370892,21.5596026 12.9469484,21.5794702 C12.9600939,21.6059603 12.9732394,21.6324503 12.986385,21.6589404 C12.9995305,21.6887417 13.0126761,21.7152318 13.0258216,21.7450331 C13.0323944,21.7649007 13.0422535,21.7847682 13.0521127,21.8046358 C13.0685446,21.8377483 13.0816901,21.8708609 13.0948357,21.9039735 L13.0948357,21.9039735 L13.1342723,22.0033113 L13.1342723,22.0033113 L13.1539906,22.0529801 L13.1539906,22.0529801 L13.1737089,22.102649 C13.1934272,22.1622517 13.2131455,22.218543 13.2328638,22.2781457 L13.2328638,22.2781457 L13.2460094,22.3245033 C13.2492958,22.3344371 13.2525822,22.3476821 13.2558685,22.3576159 C13.2624413,22.3774834 13.2657277,22.3940397 13.2723005,22.4139073 L13.2723005,22.4139073 L13.2821596,22.4536424 C13.2887324,22.4768212 13.2953052,22.5033113 13.3018779,22.5264901 C13.3084507,22.5529801 13.3150235,22.5827815 13.3215962,22.6092715 L13.3215962,22.6092715 L13.321,22.615 L14.488,22.615 L14.4882629,11.8311258 L22.5826291,11.8311258 L22.582,22.615 L24.7220657,22.615894 L24.7220657,5.98675497 Z M20.6107981,13.8178808 L16.4600939,13.8178808 L16.4600939,22.615894 L20.6107981,22.615894 L20.6107981,13.8178808 Z M22.5826291,7.93377483 L22.5826291,9.9205298 L17.9323944,9.9205298 L17.9323944,7.93377483 L22.5826291,7.93377483 Z M13.8967136,7.93377483 L13.8967136,9.9205298 L9.24647887,9.9205298 L9.24647887,7.93377483 L13.8967136,7.93377483 Z" id="Combined-Shape" fill="currentColor" fill-rule="nonzero"></path>
</svg>
