<?xml version="1.0" encoding="UTF-8"?>
<svg width="32px" height="32px" viewBox="0 0 32 32" version="1.1" xmlns="http://www.w3.org/2000/svg" xmlns:xlink="http://www.w3.org/1999/xlink">
    <path d="M5.26368,14.857631 L15.2524,14.857631 L15.2524,23.4896564 L10.98072,23.4896564 L10.98072,20.2317081 L9.44072,20.2317081 L9.44072,23.4896564 L5.26312,23.4896564 L5.26312,14.857631 L5.26368,14.857631 Z M10.1312,9.13974492 L14.26456,13.3467383 L5.76096,13.3467383 L10.1312,9.13974492 Z M2.448,25 L29.552,25 L29.552,23.4896564 L28.27576,23.4896564 L28.27576,14.857631 L30,14.857631 L21.838,7 L16,12.9436138 L10.162,7 L2,14.857631 L3.72424,14.857631 L3.72424,23.4896564 L2.448,23.4896564 L2.448,25 Z M16.7476,14.857631 L26.73632,14.857631 L26.73632,23.4896564 L22.55928,23.4896564 L22.55928,20.2317081 L21.01928,20.2317081 L21.01928,23.4896564 L16.74704,23.4896564 L16.74704,14.857631 L16.7476,14.857631 Z M7.78984,18.5401233 L7.78984,16.1702569 L6.2504,16.1702569 L6.2504,18.5401233 L7.78984,18.5401233 Z M9.44128,16.1702569 L9.44128,18.5401233 L10.98128,18.5401233 L10.98128,16.1702569 L9.44128,16.1702569 Z M12.6316,16.1702569 L12.6316,18.5401233 L14.1716,18.5401233 L14.1716,16.1702569 L12.6316,16.1702569 Z M14.1716,19.7319216 L12.6316,19.7319216 L12.6316,22.101788 L14.1716,22.101788 L14.1716,19.7319216 Z M7.78984,22.101788 L7.78984,19.7319216 L6.2504,19.7319216 L6.2504,22.101788 L7.78984,22.101788 Z M17.8284,19.7319216 L17.8284,22.101788 L19.3684,22.101788 L19.3684,19.7319216 L17.8284,19.7319216 L17.8284,19.7319216 Z M17.8284,18.5401233 L19.3684,18.5401233 L19.3684,16.1702569 L17.8284,16.1702569 L17.8284,18.5401233 Z M21.01928,16.1702569 L21.01928,18.5401233 L22.55928,18.5401233 L22.55928,16.1702569 L21.01928,16.1702569 Z M24.21016,16.1702569 L24.21016,18.5401233 L25.75016,18.5401233 L25.75016,16.1702569 L24.21016,16.1702569 Z M25.7496,19.7319216 L24.2096,19.7319216 L24.2096,22.101788 L25.7496,22.101788 L25.7496,19.7319216 Z M21.8688,9.13974492 L26.23904,13.3467383 L17.73544,13.3467383 L21.8688,9.13974492 Z" id="Shape" fill="currentColor"></path>
</svg>
