<?xml version="1.0" encoding="UTF-8"?>
<svg width="32px" height="32px" viewBox="0 0 32 32" version="1.1" xmlns="http://www.w3.org/2000/svg" xmlns:xlink="http://www.w3.org/1999/xlink">
    <path d="M5.26088,14.4917667 L26.73744,14.4917667 L26.73744,24.445995 L22.47752,24.445995 L22.47752,21.3379849 L20.91904,21.3379849 L20.91904,24.445995 L16.72912,24.445995 L16.72912,21.3379849 L15.1712,21.3379849 L15.1712,24.445995 L10.98184,24.445995 L10.98184,21.3379849 L9.42336,21.3379849 L9.42336,24.445995 L5.26088,24.445995 L5.26088,14.4917667 Z M27.9476,8 L4.05072,8 L2,14.4917667 L3.7024,14.4917667 L3.7024,24.445995 L2.59808,24.445995 L2.59808,26 L29.41032,26 L29.41032,24.445995 L28.29648,24.445995 L28.29648,14.4917667 L30,14.4917667 L27.9476,8 Z M8.16056,19.1694111 L8.16056,15.7158805 L6.60208,15.7158805 L6.60208,19.1694111 L8.16056,19.1694111 Z M9.42336,15.7158805 L9.42336,19.1694111 L10.98184,19.1694111 L10.98184,15.7158805 L9.42336,15.7158805 Z M12.34992,15.7158805 L12.34992,19.1694111 L13.9084,19.1694111 L13.9084,15.7158805 L12.34992,15.7158805 Z M15.1712,15.7158805 L15.1712,19.1694111 L16.72968,19.1694111 L16.72968,15.7158805 L15.1712,15.7158805 Z M18.09832,15.7158805 L18.09832,19.1694111 L19.6568,19.1694111 L19.6568,15.7158805 L18.09832,15.7158805 Z M20.9196,15.7158805 L20.9196,19.1694111 L22.47808,19.1694111 L22.47808,15.7158805 L20.9196,15.7158805 Z M23.84616,15.7158805 L23.84616,19.1694111 L25.40464,19.1694111 L25.40464,15.7158805 L23.84616,15.7158805 Z M25.40464,20.3778956 L23.84616,20.3778956 L23.84616,23.2213229 L25.40464,23.2213229 L25.40464,20.3778956 Z M19.6568,23.2218811 L19.6568,20.3784538 L18.09832,20.3784538 L18.09832,23.2218811 L19.6568,23.2218811 Z M13.90896,23.2218811 L13.90896,20.3784538 L12.35048,20.3784538 L12.35048,23.2218811 L13.90896,23.2218811 Z M8.16056,23.2218811 L8.16056,20.3784538 L6.60208,20.3784538 L6.60208,23.2218811 L8.16056,23.2218811 Z M27.87704,12.9383198 L4.12184,12.9383198 L5.19088,9.55344683 L26.80744,9.55344683 L27.87704,12.9383198 Z" id="Shape" fill="currentColor"></path>
</svg>
