<?xml version="1.0" encoding="UTF-8"?>
<svg width="32px" height="32px" viewBox="0 0 32 32" version="1.1" xmlns="http://www.w3.org/2000/svg" xmlns:xlink="http://www.w3.org/1999/xlink">
    <path d="M29.8251327,12.6160582 L24.8449994,7.2138317 C24.7194405,7.07759666 24.542376,7 24.3566903,7 L23.9848769,7 C23.7991913,7 23.6221267,7.07759666 23.4965679,7.2138317 L20.0854783,10.9142224 L16.6739465,7.21405215 C16.5483877,7.0778171 16.3713231,7.00022045 16.1858585,7.00022045 L15.8140451,7.00022045 C15.6285805,7.00022045 15.451516,7.0778171 15.3259571,7.21405215 L11.9146465,10.9142224 L8.50333582,7.21405215 C8.37777695,7.0778171 8.20071242,7.00022045 8.01524783,7.00022045 L7.64343442,7.00022045 C7.45796982,7.00022045 7.28068424,7.0778171 7.15534642,7.21405215 L2.17499202,12.6160582 C1.9271901,12.8847807 1.94465339,13.3031854 2.21411864,13.5503043 L3.06805157,14.3337661 L3.06805157,24.3386648 C3.06805157,24.7039423 3.36492756,25 3.73121461,25 L11.9102254,25 L20.0892362,25 L28.2680259,25 C28.634313,25 28.931189,24.7039423 28.931189,24.3386648 L28.931189,14.3342069 L29.785564,13.5503043 C30.0552503,13.3031854 30.0729346,12.8850012 29.8251327,12.6160582 Z M7.82934112,8.43708131 L11.4265585,12.3389588 C11.6778973,12.6114289 12.1516167,12.6114289 12.4029555,12.3389588 L16.0001729,8.43708131 L19.5971692,12.3389588 C19.848508,12.6114289 20.3224485,12.6114289 20.5735663,12.3389588 L24.1705626,8.43708131 L28.3997743,13.0245429 L28.0288451,13.36491 L24.6588716,9.71015149 C24.5335338,9.57391645 24.3562482,9.49654024 24.1707836,9.49654024 C23.985319,9.49654024 23.8080334,9.5741369 23.6826956,9.71015149 L20.0854783,13.6113676 L16.4882609,9.71015149 C16.362702,9.57391645 16.1856375,9.49654024 16.0001729,9.49654024 C15.8147083,9.49654024 15.6376438,9.5741369 15.5120849,9.71015149 L11.9146465,13.6113676 L8.31765017,9.71015149 C8.1920913,9.57391645 8.01502677,9.49654024 7.82956218,9.49654024 C7.64409758,9.49654024 7.46703305,9.5741369 7.34147418,9.71015149 L3.97105857,13.36491 L3.60012938,13.0245429 L7.82934112,8.43708131 Z M9.11963534,23.6773297 L6.52224678,23.6773297 L6.52224678,20.0128715 C6.52224678,19.29885 7.10494603,18.7177568 7.82094106,18.7177568 C8.53693608,18.7177568 9.11963534,19.29885 9.11963534,20.0128715 L9.11963534,23.6773297 Z M10.4459614,23.6773297 L10.4459614,20.0128715 C10.4459614,18.5693973 9.26840491,17.3950865 7.82094106,17.3950865 C6.3734772,17.3950865 5.1959207,18.5693973 5.1959207,20.0128715 L5.1959207,23.6773297 L4.3945987,23.6773297 L4.3945987,14.837483 C4.43195689,14.8108092 4.46688347,14.7810491 4.49849424,14.7468801 L7.82956218,11.1348879 L11.160188,14.7471005 C11.1867145,14.7757584 11.2165569,14.8004482 11.2472834,14.8238154 L11.2472834,23.6775501 L10.4459614,23.6775501 L10.4459614,23.6773297 Z M17.2988672,23.6773297 L14.7014786,23.6773297 L14.7014786,20.0128715 C14.7014786,19.29885 15.2841779,18.7177568 16.0001729,18.7177568 C16.7161679,18.7177568 17.2988672,19.29885 17.2988672,20.0128715 L17.2988672,23.6773297 Z M18.6251933,23.6773297 L18.6251933,20.0128715 C18.6251933,18.5693973 17.4476368,17.3950865 16.0001729,17.3950865 C14.552709,17.3950865 13.3751525,18.5693973 13.3751525,20.0128715 L13.3751525,23.6773297 L12.5736095,23.6773297 L12.5736095,14.8313105 C12.6076519,14.8061798 12.6401468,14.7786242 12.669326,14.7471005 L16.0001729,11.1348879 L19.3305777,14.7471005 C19.3597568,14.7786242 19.3920308,14.8061798 19.4260731,14.8310901 L19.4260731,23.6773297 L18.6251933,23.6773297 Z M25.4774359,23.6773297 L22.8800473,23.6773297 L22.8800473,20.0128715 C22.8800473,19.29885 23.4627466,18.7177568 24.1787416,18.7177568 C24.8947366,18.7177568 25.4774359,19.29885 25.4774359,20.0128715 L25.4774359,23.6773297 Z M26.8037619,23.6773297 L26.8037619,20.0128715 C26.8037619,18.5693973 25.6262054,17.3950865 24.1787416,17.3950865 C22.7312777,17.3950865 21.5537212,18.5693973 21.5537212,20.0128715 L21.5537212,23.6773297 L20.7526203,23.6773297 L20.7526203,14.8240359 C20.7835679,14.8006687 20.8134102,14.7759788 20.8401578,14.7471005 L24.1710047,11.1348879 L27.5016305,14.7471005 C27.5330202,14.7810491 27.5679468,14.8110296 27.6050839,14.8372626 L27.6050839,23.6773297 L26.8037619,23.6773297 L26.8037619,23.6773297 Z" id="Shape" fill="currentColor"></path>
</svg>
