<?xml version="1.0" encoding="UTF-8"?>
<svg width="32px" height="32px" viewBox="0 0 32 32" version="1.1" xmlns="http://www.w3.org/2000/svg" xmlns:xlink="http://www.w3.org/1999/xlink">
    <path d="M2.73805753,13.5024631 L14.2148004,3.63399015 C15.195856,2.78866995 16.804144,2.78866995 17.7851996,3.63399015 C21.8573847,7.13694581 25.4213508,10.1980296 29.2619425,13.5024631 C29.9052577,14.053202 30.1272014,14.8312808 29.9309903,15.5421182 L25.7301421,15.5421182 C25.7526582,15.6573892 25.7623079,15.7726601 25.7623079,15.894335 L25.7623079,27.0980296 C25.7623079,28.1450739 24.9034821,29 23.8516618,29 L8.14833821,29 C7.09651789,29 6.23769212,28.1450739 6.23769212,27.0980296 L6.23769212,15.894335 C6.23769212,15.7726601 6.24734185,15.6573892 6.26985788,15.5421182 L2.06900974,15.5421182 C1.87279861,14.8312808 2.09474235,14.053202 2.73805753,13.5024631 Z M14.34668,15.785468 L17.65332,15.785468 L17.65332,18.4847291 L20.3648935,18.4847291 L20.3648935,21.7731527 L17.65332,21.7731527 L17.65332,24.4756158 L14.34668,24.4756158 L14.34668,21.7731527 L11.6351065,21.7731527 L11.6351065,18.4847291 L14.34668,18.4847291 L14.34668,15.785468 Z" id="Shape" fill="currentColor"></path>
</svg>
