<?xml version="1.0" encoding="UTF-8"?>
<svg width="32px" height="32px" viewBox="0 0 32 32" version="1.1" xmlns="http://www.w3.org/2000/svg" xmlns:xlink="http://www.w3.org/1999/xlink">
    <path d="M25.2,4 C26.7456663,4.00176345 27.9982365,5.25433374 28,6.8 L28,6.8 L28,25.2 C27.9982365,26.7456663 26.7456663,27.9982365 25.2,28 L25.2,28 L6.8,28 C5.25433374,27.9982365 4.00176345,26.7456663 4,25.2 L4,25.2 L4,6.8 C4.00176345,5.25433374 5.25433374,4.00176345 6.8,4 L6.8,4 Z M13.6,8.39998753 L9.8668,8.39998753 C9.50136314,8.39778156 9.2030809,8.69176939 9.2,9.0572 L9.2,22.9428 C9.2030809,23.3082306 9.50136314,23.6022184 9.8668,23.6000125 L13.6,23.6000125 C13.9654369,23.6022184 14.2637191,23.3082306 14.2668,22.9428 L14.2668,18.4572 L17.7332,18.4572 L17.7332,22.9428 C17.7362809,23.3082306 18.0345631,23.6022184 18.4,23.6000125 L22.1332,23.6000125 C22.4986369,23.6022184 22.7969191,23.3082306 22.8,22.9428 L22.8,9.0572 C22.7969191,8.69176939 22.4986369,8.39778156 22.1332,8.39998753 L18.4,8.39998753 C18.0345631,8.39778156 17.7362809,8.69176939 17.7332,9.0572 L17.7332,13.5428 L14.2668,13.5428 L14.2668,9.0572 C14.2637191,8.69176939 13.9654369,8.39778156 13.6,8.39998753 Z" fill="currentColor" fill-rule="nonzero"></path>
</svg>
