<?xml version="1.0" encoding="UTF-8"?>
<svg width="32px" height="32px" viewBox="0 0 32 32" version="1.1" xmlns="http://www.w3.org/2000/svg" xmlns:xlink="http://www.w3.org/1999/xlink">
    <path d="M27,10.9682445 L27,15.2834032 C27,15.7135831 26.6383838,16.0623128 26.1923077,16.0623128 L20.3123077,16.0623128 L21.9276923,17.6201318 C22.0805987,17.766385 22.1666063,17.9654711 22.1666063,18.1731576 C22.1666063,18.3808441 22.0805987,18.5799301 21.9276923,18.7261833 C21.7760347,18.8736408 21.5695919,18.9565835 21.3542308,18.9565835 C21.1388697,18.9565835 20.9324269,18.8736408 20.7807692,18.7261833 L19.545,17.5578191 L19.545,28.2210905 C19.545,28.6512703 19.1833838,29 18.7373077,29 L14.2626923,29 C13.8166162,29 13.455,28.6512703 13.455,28.2210905 L13.455,17.5578191 L12.2273077,18.7495506 C12.0756501,18.8970081 11.8692072,18.9799508 11.6538462,18.9799508 C11.4384851,18.9799508 11.2320423,18.8970081 11.0803846,18.7495506 C10.9274782,18.6032974 10.8414706,18.4042114 10.8414706,18.1965249 C10.8414706,17.9888383 10.9274782,17.7897523 11.0803846,17.6434991 L12.6957692,16.08568 L6.80769231,16.08568 C6.36161616,16.08568 6,15.7369504 6,15.3067705 L6,10.9682445 C6,10.5380646 6.36161616,10.1893349 6.80769231,10.1893349 L12.3161538,10.1893349 L11.0803846,8.98981426 C10.7672233,8.68601037 10.7672233,8.19535572 11.0803846,7.89155183 C11.2320423,7.7440944 11.4384851,7.66115169 11.6538462,7.66115169 C11.8692072,7.66115169 12.0756501,7.7440944 12.2273077,7.89155183 L13.455,9.07549431 L13.455,3.77890953 C13.455,3.34872967 13.8166162,3 14.2626923,3 L18.7373077,3 C19.1833838,3 19.545,3.34872967 19.545,3.77890953 L19.545,9.0832834 L20.7726923,7.89934092 C20.9243499,7.7518835 21.1307928,7.66894079 21.3461538,7.66894079 C21.5615149,7.66894079 21.7679577,7.7518835 21.9196154,7.89934092 C22.2327767,8.20314481 22.2327767,8.69379947 21.9196154,8.99760336 L20.6838462,10.1893349 L26.1923077,10.1893349 C26.6383838,10.1893349 27,10.5380646 27,10.9682445 Z" id="Path" fill="currentColor"></path>
</svg>
