<?xml version="1.0" encoding="UTF-8"?>
<svg width="32px" height="32px" viewBox="0 0 32 32" version="1.1" xmlns="http://www.w3.org/2000/svg" xmlns:xlink="http://www.w3.org/1999/xlink">
    <path d="M3.13573425,22.3211778 C3.33651271,22.6978889 3.72853626,22.9333333 4.15551548,22.9333333 L11.3066952,22.9333333 L15.0408856,28.4889556 C15.2555308,28.8084667 15.6151987,29 16,29 C16.3848013,29 16.7444692,28.8084667 16.9591144,28.4889556 L20.6933048,22.9333333 L27.8444845,22.9333333 C28.2714637,22.9333333 28.6634873,22.6978889 28.8642657,22.3211778 C29.0650442,21.9444667 29.0416441,21.4874444 28.8035989,21.1332667 L25.3533872,16 L28.8035989,10.8667333 C29.0416441,10.5122667 29.0650442,10.0555333 28.8642657,9.67882222 C28.6634873,9.30211111 28.2714637,9.06666667 27.8444845,9.06666667 L20.6933048,9.06666667 L16.9591144,3.51104444 C16.7444692,3.19153333 16.3848013,3 16,3 C15.6151987,3 15.2555308,3.19153333 15.0408856,3.51104444 L11.3066952,9.06666667 L4.15551548,9.06666667 C3.72853626,9.06666667 3.33651271,9.30211111 3.13573425,9.67882222 C2.93495579,10.0555333 2.95835587,10.5125556 3.19640112,10.8667333 L6.6466128,16 L3.19640112,21.1332667 C2.95835587,21.4874444 2.93495579,21.9444667 3.13573425,22.3211778 Z M16,25.7731111 L14.0913047,22.9333333 L17.9084065,22.9333333 L16,25.7731111 Z M12.5379438,20.6222222 L9.43122222,16 L12.5379438,11.3777778 L19.4617673,11.3777778 L22.5684889,16 L19.4620562,20.6222222 L12.5379438,20.6222222 Z M25.6754994,20.6222222 L22.2466656,20.6222222 L23.960938,18.0716222 L25.6754994,20.6222222 Z M25.6754994,11.3777778 L23.9612269,13.9283778 L22.2466656,11.3777778 L25.6754994,11.3777778 Z M16,6.22688889 L17.9086953,9.06666667 L14.0913047,9.06666667 L16,6.22688889 Z M6.3245006,11.3777778 L9.75333442,11.3777778 L8.03906195,13.9283778 L6.3245006,11.3777778 Z M8.03906195,18.0716222 L9.75333442,20.6222222 L6.3245006,20.6222222 L8.03906195,18.0716222 Z" id="Shape" fill="currentColor"></path>
</svg>
