<?xml version="1.0" encoding="UTF-8"?>
<svg width="32px" height="32px" viewBox="0 0 32 32" version="1.1" xmlns="http://www.w3.org/2000/svg" xmlns:xlink="http://www.w3.org/1999/xlink">
    <path d="M12.2894737,4 C7.42821053,5.93046803 4,10.5830288 4,16.0215049 C4,23.1890022 9.94963158,29 17.2927789,29 C21.6832632,29 25.5787789,26.9193133 28,23.7168145 C26.4544316,24.3305643 24.7681474,24.6738141 22.9966947,24.6738141 C15.6535789,24.6738141 9.69406316,18.8628163 9.69406316,11.6953096 C9.69406316,8.8133107 10.6612,6.15368669 12.2894737,4 L12.2894737,4 Z M22,6.81249895 L20.1447368,10.5136851 L16,11.1093723 L19,13.9902463 L18.2894737,18.0625041 L22,16.1386923 L25.7105263,18.0625041 L25,13.9902463 L28,11.1093723 L23.8552632,10.5136851 L22,6.81249895 Z" id="Shape" fill="currentColor"></path>
</svg>
