<?xml version="1.0" encoding="UTF-8"?>
<svg width="32px" height="32px" viewBox="0 0 32 32" version="1.1" xmlns="http://www.w3.org/2000/svg" xmlns:xlink="http://www.w3.org/1999/xlink">
    <path d="M14.4350996,4.00026313 C15.01966,4 15.4930642,4.47251266 15.4930642,5.05532215 L15.5041534,13.0427604 C15.246725,12.654484 14.5673782,12.4499479 14.2304771,12.4852218 C13.131324,12.4852218 12.5187765,13.4613092 12.5200967,14.3444736 L12.5298658,17.8505439 L13.1540305,17.8426467 L13.1429413,14.3700077 C13.1447895,13.7205989 13.6739038,13.1912268 14.3279038,13.1838561 C14.5261897,13.1862253 14.7181388,13.2359773 14.8852692,13.3291636 C15.0663932,13.4228765 15.2153056,13.5639722 15.327782,13.7271799 C15.4479152,13.9201335 15.5112822,14.1386213 15.5112822,14.3634267 L15.5173548,20.5100399 C15.5173548,20.5100399 15.5139225,20.9980836 15.4054065,21.4424298 C15.3046354,21.8429907 14.9939245,22.227282 14.8931534,22.3442524 L14.8612426,22.3803477 L14.8612426,22.3803477 L9.86924467,29 L3,29 L8.94382273,21.9494267 L10.0836363,15.226585 C10.144363,14.6435122 10.5977009,13.8719609 10.5977009,13.8719609 L10.6203887,13.848282 C10.7908012,13.6680806 11.880238,12.4747765 12.4892053,10.7986543 C13.3158803,8.52358677 13.3734579,5.62243549 13.3771825,5.12818008 L13.3773991,5.05505891 L13.3773991,5.05505891 C13.3773991,4.47224942 13.8502752,4.00026313 14.4350996,4.00026313 Z M17.5643723,4 C18.1494608,4 18.6220728,4.47198619 18.6220728,5.05479567 L18.6220728,5.05479567 L18.6228323,5.18315993 C18.6304743,5.80869181 18.7100256,8.5967128 19.5102667,10.7983911 C20.1192339,12.4745133 21.2084472,13.6678173 21.378824,13.8480188 L21.401507,13.8716977 C21.401507,13.8716977 21.8548449,14.643249 21.9155716,15.2263217 L21.9155716,15.2263217 L23.0553852,21.9491634 L29,28.9997368 L22.1304913,28.9997368 L17.1384934,22.3803477 L17.1384934,22.3803477 L17.106563,22.3442524 C17.0057308,22.227282 16.6948365,21.8429907 16.5940654,21.4424298 C16.4858135,20.9980836 16.4823811,20.5100399 16.4823811,20.5100399 L16.4823811,20.5100399 L16.4881898,14.3634267 C16.4881898,14.1386213 16.5518208,13.9201335 16.67169,13.7271799 C16.7841664,13.5639722 16.9330788,13.4228765 17.1144668,13.3291636 C17.2813331,13.2359773 17.4735463,13.1862253 17.6715681,13.1838561 C18.3255682,13.1912268 18.8546825,13.7205989 18.8565307,14.3700077 L18.8565307,14.3700077 L18.8454414,17.8426467 L19.4696062,17.8505439 L19.4791112,14.3444736 C19.4804314,13.4613092 18.8678839,12.4852218 17.7687308,12.4852218 C17.4323578,12.4499479 16.7527469,12.654484 16.4953186,13.0427604 L16.4953186,13.0427604 L16.5064078,5.05532215 C16.5064078,4.47251266 16.9795479,4 17.5643723,4 Z" id="Combined-Shape" fill="currentColor"></path>
</svg>
