<?xml version="1.0" encoding="UTF-8"?>
<svg width="32px" height="32px" viewBox="0 0 32 32" version="1.1" xmlns="http://www.w3.org/2000/svg" xmlns:xlink="http://www.w3.org/1999/xlink">
    <path d="M27,10.9214953 L27,15.2629283 C27,15.6610551 26.6647513,15.9838006 26.2512016,15.9838006 L19.5204324,15.9838006 L19.5204324,28.2791277 C19.5204324,28.6772545 19.1851841,29 18.7716344,29 L14.2283652,29 C13.8148155,29 13.4795672,28.6772545 13.4795672,28.2791277 L13.4795672,15.9838006 L6.74879806,15.9838006 C6.33524831,15.9838006 6,15.6610551 6,15.2629283 L6,10.9214953 C6,10.5233686 6.33524831,10.2006231 6.74879806,10.2006231 L13.4795672,10.2006231 L13.4795672,3.72087227 C13.4795672,3.32274551 13.8148155,3 14.2283652,3 L18.7379805,3 C18.9365741,3 19.1270338,3.07594883 19.2674607,3.2111386 C19.4078876,3.34632838 19.4867786,3.52968506 19.4867786,3.72087227 L19.4867786,10.2006231 L26.2175477,10.2006231 C26.4219055,10.1917719 26.6211278,10.2637951 26.7689202,10.399956 C26.9167125,10.536117 27,10.72456 27,10.9214953 Z" id="Path" fill="currentColor"></path>
</svg>
