<?xml version="1.0" encoding="UTF-8"?>
<svg width="32px" height="32px" viewBox="0 0 32 32" version="1.1" xmlns="http://www.w3.org/2000/svg" xmlns:xlink="http://www.w3.org/1999/xlink">
    <g id="Stylesheet" stroke="none" stroke-width="1" fill="none" fill-rule="evenodd">
        <g id="Icons---Interface" transform="translate(-730.000000, -579.000000)">
            <g id="icons" transform="translate(240.000000, 147.000000)">
                <g id="icon" transform="translate(490.000000, 432.000000)">
                    <path d="M29,10.8911258 L29,7.84686186 L14.987501,3 L8.79642887,3 L2,8.0203299 L2,10.8911258 L8.23633196,10.8911258 L8.23633196,30 L15.6821526,30 L15.6821526,10.8911258 L25.4054928,10.8911258 L25.4054928,16.8270062 L23.4329897,16.8270062 L23.4329897,22.3940165 L29,22.3940165 L29,16.8270062 L27.0756515,16.8270062 L27.0756515,10.8911258 L29,10.8911258 Z M27.3298969,20.7239134 L25.1030928,20.7239134 L25.1030928,18.4971093 L27.3298969,18.4971093 L27.3298969,20.7239134 Z M10.1986474,22.7953423 L14.0121052,18.5896887 L14.0121052,27.0009959 L10.1986474,22.7953423 Z M9.90643505,20.6312227 L9.90643505,12.2201938 L13.7197814,16.4257361 L9.90643505,20.6312227 Z M9.90643505,4.67010309 L14.0120495,4.67010309 L14.0120495,9.22102268 L9.90643505,9.22102268 L9.90643505,4.67010309 Z M3.67010309,9.22102268 L3.67010309,8.86295258 L8.23633196,5.49001237 L8.23633196,9.22102268 L3.67010309,9.22102268 L3.67010309,9.22102268 Z M9.90643505,24.9594619 L12.9626124,28.3298969 L9.90649072,28.3298969 L9.90649072,24.9594619 L9.90643505,24.9594619 Z M14.0120495,14.2617278 L10.9558165,10.8911258 L14.0120495,10.8911258 L14.0120495,14.2617278 Z M15.6821526,5.00746392 L27.3298969,9.03642062 L27.3298969,9.22102268 L15.6821526,9.22102268 L15.6821526,5.00746392 Z" fill="currentColor"></path>
                </g>
            </g>
        </g>
    </g>
</svg>
