<?xml version="1.0" encoding="UTF-8"?>
<svg width="20px" height="20px" viewBox="0 0 20 20" version="1.1" xmlns="http://www.w3.org/2000/svg" xmlns:xlink="http://www.w3.org/1999/xlink">
    <g id="Analysis" stroke="none" stroke-width="1" fill="currentColor" fill-rule="evenodd">
        <g id="des---analysis" transform="translate(-1394.000000, -606.000000)" fill="#4F4F4F" fill-rule="nonzero">
            <g id="controls" transform="translate(0.000000, 40.000000)">
                <g transform="translate(1218.000000, 508.000000)" id="toolbar">
                    <g transform="translate(166.000000, 0.000000)">
                        <g id="drawBtn" transform="translate(0.000000, 48.000000)">
                            <path d="M27.1428571,24.2857143 C27.1272321,24.2857143 27.1129464,24.2901786 27.0973214,24.2901786 L25.3473214,21.3741071 C25.5736607,20.9647321 25.7142857,20.5008929 25.7142857,20 C25.7142857,19.4991071 25.5741071,19.0352679 25.3473214,18.6258929 L27.0973214,15.7098214 C27.1129464,15.7102679 27.1272321,15.7142857 27.1428571,15.7142857 C28.7209821,15.7142857 30,14.4352679 30,12.8571429 C30,11.2790179 28.7209821,10 27.1428571,10 C26.0879464,10 25.1767857,10.578125 24.6821429,11.4285714 L15.3178571,11.4285714 C14.8232143,10.578125 13.9120536,10 12.8571429,10 C11.2790179,10 10,11.2790179 10,12.8571429 C10,13.9120536 10.578125,14.8232143 11.4285714,15.3178571 L11.4285714,24.6816964 C10.578125,25.1767857 10,26.0879464 10,27.1428571 C10,28.7209821 11.2790179,30 12.8571429,30 C13.9120536,30 14.8232143,29.421875 15.3178571,28.5714286 L24.6816964,28.5714286 C25.1767857,29.421875 26.0875,30 27.1424107,30 C28.7205357,30 29.9995536,28.7209821 29.9995536,27.1428571 C30,25.5647321 28.7209821,24.2857143 27.1428571,24.2857143 Z M14.2857143,24.6821429 L14.2857143,15.3178571 C14.7135459,15.069266 15.069266,14.7135459 15.3178571,14.2857143 L24.6196429,14.2857143 L22.9026786,17.1473214 C22.8870536,17.146875 22.8727679,17.1428571 22.8571429,17.1428571 C21.2790179,17.1428571 20,18.421875 20,20 C20,21.578125 21.2790179,22.8571429 22.8571429,22.8571429 C22.8727679,22.8571429 22.8870536,22.8526786 22.9026786,22.8526786 L24.6196429,25.7142857 L15.3178571,25.7142857 C15.0693926,25.2863567 14.7136433,24.9306074 14.2857143,24.6821429 L14.2857143,24.6821429 Z M22.1428571,20 C22.1428571,19.60625 22.4633929,19.2857143 22.8571429,19.2857143 C23.2508929,19.2857143 23.5714286,19.60625 23.5714286,20 C23.5714286,20.39375 23.2508929,20.7142857 22.8571429,20.7142857 C22.4633929,20.7142857 22.1428571,20.39375 22.1428571,20 Z M27.8571429,12.8571429 C27.8571429,13.2508929 27.5366071,13.5714286 27.1428571,13.5714286 C26.7491071,13.5714286 26.4285714,13.2508929 26.4285714,12.8571429 C26.4285714,12.4633929 26.7491071,12.1428571 27.1428571,12.1428571 C27.5366071,12.1428571 27.8571429,12.4633929 27.8571429,12.8571429 Z M12.8571429,12.1428571 C13.2508929,12.1428571 13.5714286,12.4633929 13.5714286,12.8571429 C13.5714286,13.2508929 13.2508929,13.5714286 12.8571429,13.5714286 C12.4633929,13.5714286 12.1428571,13.2508929 12.1428571,12.8571429 C12.1428571,12.4633929 12.4633929,12.1428571 12.8571429,12.1428571 Z M12.1428571,27.1428571 C12.1428571,26.7491071 12.4633929,26.4285714 12.8571429,26.4285714 C13.2508929,26.4285714 13.5714286,26.7491071 13.5714286,27.1428571 C13.5714286,27.5366071 13.2508929,27.8571429 12.8571429,27.8571429 C12.4633929,27.8571429 12.1428571,27.5366071 12.1428571,27.1428571 Z M27.1428571,27.8571429 C26.7491071,27.8571429 26.4285714,27.5366071 26.4285714,27.1428571 C26.4285714,26.7491071 26.7491071,26.4285714 27.1428571,26.4285714 C27.5366071,26.4285714 27.8571429,26.7491071 27.8571429,27.1428571 C27.8571429,27.5366071 27.5366071,27.8571429 27.1428571,27.8571429 Z" id="polygonIcon"></path>
                        </g>
                    </g>
                </g>
            </g>
        </g>
    </g>
</svg>