<?xml version="1.0" encoding="UTF-8"?>
<svg width="20px" height="20px" viewBox="0 0 20 20" version="1.1" xmlns="http://www.w3.org/2000/svg" xmlns:xlink="http://www.w3.org/1999/xlink">
    <g id="Analysis" stroke="none" stroke-width="1" fill="currentColor" fill-rule="evenodd">
        <g id="des---analysis" transform="translate(-1394.000000, -654.000000)" fill="#4F4F4F" fill-rule="nonzero">
            <g id="controls" transform="translate(0.000000, 40.000000)">
                <g transform="translate(1218.000000, 508.000000)" id="toolbar">
                    <g transform="translate(166.000000, 0.000000)">
                        <g id="sateliteBtn" transform="translate(0.000000, 96.000000)">
                            <path d="M29.6331846,22.1110234 L25.8556884,25.8889993 C25.3696986,26.3732772 24.5835674,26.3732772 24.0975776,25.8889993 L20.9598399,22.7477062 L20.5734217,23.1347211 C21.5304082,25.2425061 21.4523428,27.6755395 20.3622045,29.7176412 C20.1863933,30.0497172 19.7218368,30.0924476 19.4556786,29.8269087 L15.2557459,25.6271233 L14.5604375,26.3224076 C14.5879078,26.4243497 14.6233145,26.5177462 14.6233145,26.627014 C14.6233318,27.1326814 14.3187384,27.5885671 13.8515676,27.7820896 C13.3843967,27.9756122 12.8466511,27.86866 12.4890841,27.5111053 C12.131517,27.1535507 12.0245463,26.615809 12.2180528,26.1486317 C12.4115594,25.6814543 12.8674348,25.3768454 13.3731023,25.3768454 C13.4823738,25.3768454 13.5757734,25.4122504 13.6777194,25.4397199 L14.3730278,24.7444356 L10.1730966,20.5446499 C9.90754985,20.2785008 9.9502807,19.817623 10.2823681,19.6381555 C12.3245612,18.548054 14.7576462,18.469992 16.8655161,19.4269448 L17.2482715,19.0442024 L14.1111423,15.9029093 C13.6270515,15.4154371 13.6270515,14.628669 14.1111423,14.1411968 L17.8892447,10.3632221 C18.1220483,10.129686 18.4385541,9.99891268 18.7683046,10.0000068 C19.0990053,9.99954832 19.4164142,10.1301513 19.6510227,10.3632221 L22.788762,13.5002422 L24.6561443,11.6292618 C25.1687317,11.1171079 25.9993406,11.1171079 26.5119281,11.6292618 L28.3677115,13.4849812 C28.8792727,13.9977888 28.8792727,14.8278927 28.3677115,15.3407003 L26.5003293,17.2116806 L29.6374576,20.3529754 C29.8703568,20.5864972 30.0007907,20.9030769 30,21.2328857 C29.9991875,21.5626945 29.8672162,21.8786364 29.6331846,22.1110234 Z M18.5766215,17.712235 L21.4604116,14.8285448 L18.7683031,12.1371404 L15.8851235,15.02022 L18.5766215,17.712235 Z M27.8634749,21.2319982 L25.1719785,18.5399844 L22.2881903,21.4236746 L24.9802988,24.115079 L27.8634749,21.2319982 Z" id="sateliteIcon"></path>
                        </g>
                    </g>
                </g>
            </g>
        </g>
    </g>
</svg>