<?xml version="1.0" encoding="UTF-8"?>
<svg width="32px" height="32px" viewBox="0 0 32 32" version="1.1" xmlns="http://www.w3.org/2000/svg" xmlns:xlink="http://www.w3.org/1999/xlink">
    <path d="M15.0714286,20.6153846 L15.0714286,28 L12.2857143,28 L12.2857143,20.6153846 L15.0714286,20.6153846 Z M19.7142857,20.6153846 L19.7142857,28 L16.9285714,28 L16.9285714,20.6153846 L19.7142857,20.6153846 Z M28.0714286,4 C28.5842644,4 29,4.41327562 29,4.92307692 L29,4.92307692 L29,27.0769231 C29,27.5867244 28.5842644,28 28.0714286,28 L28.0714286,28 L21.5714286,28 L21.5714286,19.6923077 C21.5714286,19.1825064 21.155693,18.7692308 20.6428571,18.7692308 L20.6428571,18.7692308 L11.3571429,18.7692308 C10.844307,18.7692308 10.4285714,19.1825064 10.4285714,19.6923077 L10.4285714,19.6923077 L10.4285714,28 L3.92857143,28 C3.41573559,28 3,27.5867244 3,27.0769231 L3,27.0769231 L3,4.92307692 C3,4.41327562 3.41573559,4 3.92857143,4 L3.92857143,4 Z M10.4285714,13.2307692 L8.57142857,13.2307692 C8.05859273,13.2307692 7.64285714,13.6440448 7.64285714,14.1538462 L7.64285714,14.1538462 L7.64285714,16 C7.64285714,16.5098013 8.05859273,16.9230769 8.57142857,16.9230769 L8.57142857,16.9230769 L10.4285714,16.9230769 C10.9414073,16.9230769 11.3571429,16.5098013 11.3571429,16 L11.3571429,16 L11.3571429,14.1538462 C11.3571429,13.6440448 10.9414073,13.2307692 10.4285714,13.2307692 L10.4285714,13.2307692 Z M16.9285714,13.2307692 L15.0714286,13.2307692 C14.5585927,13.2307692 14.1428571,13.6440448 14.1428571,14.1538462 L14.1428571,14.1538462 L14.1428571,16 C14.1428571,16.5098013 14.5585927,16.9230769 15.0714286,16.9230769 L15.0714286,16.9230769 L16.9285714,16.9230769 C17.4414073,16.9230769 17.8571429,16.5098013 17.8571429,16 L17.8571429,16 L17.8571429,14.1538462 C17.8571429,13.6440448 17.4414073,13.2307692 16.9285714,13.2307692 L16.9285714,13.2307692 Z M23.4285714,13.2307692 L21.5714286,13.2307692 C21.0585927,13.2307692 20.6428571,13.6440448 20.6428571,14.1538462 L20.6428571,14.1538462 L20.6428571,16 C20.6428571,16.5098013 21.0585927,16.9230769 21.5714286,16.9230769 L21.5714286,16.9230769 L23.4285714,16.9230769 C23.9414073,16.9230769 24.3571429,16.5098013 24.3571429,16 L24.3571429,16 L24.3571429,14.1538462 C24.3571429,13.6440448 23.9414073,13.2307692 23.4285714,13.2307692 L23.4285714,13.2307692 Z M10.4285714,7.69230769 L8.57142857,7.69230769 C8.05859273,7.69230769 7.64285714,8.10558331 7.64285714,8.61538462 L7.64285714,8.61538462 L7.64285714,10.4615385 C7.64285714,10.9713398 8.05859273,11.3846154 8.57142857,11.3846154 L8.57142857,11.3846154 L10.4285714,11.3846154 C10.9414073,11.3846154 11.3571429,10.9713398 11.3571429,10.4615385 L11.3571429,10.4615385 L11.3571429,8.61538462 C11.3571429,8.10558331 10.9414073,7.69230769 10.4285714,7.69230769 L10.4285714,7.69230769 Z M16.9285714,7.69230769 L15.0714286,7.69230769 C14.5585927,7.69230769 14.1428571,8.10558331 14.1428571,8.61538462 L14.1428571,8.61538462 L14.1428571,10.4615385 C14.1428571,10.9713398 14.5585927,11.3846154 15.0714286,11.3846154 L15.0714286,11.3846154 L16.9285714,11.3846154 C17.4414073,11.3846154 17.8571429,10.9713398 17.8571429,10.4615385 L17.8571429,10.4615385 L17.8571429,8.61538462 C17.8571429,8.10558331 17.4414073,7.69230769 16.9285714,7.69230769 L16.9285714,7.69230769 Z M23.4285714,7.69230769 L21.5714286,7.69230769 C21.0585927,7.69230769 20.6428571,8.10558331 20.6428571,8.61538462 L20.6428571,8.61538462 L20.6428571,10.4615385 C20.6428571,10.9713398 21.0585927,11.3846154 21.5714286,11.3846154 L21.5714286,11.3846154 L23.4285714,11.3846154 C23.9414073,11.3846154 24.3571429,10.9713398 24.3571429,10.4615385 L24.3571429,10.4615385 L24.3571429,8.61538462 C24.3571429,8.10558331 23.9414073,7.69230769 23.4285714,7.69230769 L23.4285714,7.69230769 Z" id="Combined-Shape" fill="currentColor"></path>
</svg>
