<?xml version="1.0" encoding="UTF-8"?>
<svg width="32px" height="32px" viewBox="0 0 32 32" version="1.1" xmlns="http://www.w3.org/2000/svg" xmlns:xlink="http://www.w3.org/1999/xlink">
    <path d="M27.8083333,26.7344398 L27.8083333,13.7883817 L24.2333333,7.3153527 L16,3 L7.65833333,7.42323651 L4.08333333,13.8962656 L4.08333333,26.8423237 L3,26.8423237 L3,29 L12.75,29 L12.75,23.6058091 C12.75,21.879668 14.1583333,20.3692946 16,20.3692946 C17.7333333,20.3692946 19.25,21.7717842 19.25,23.6058091 L19.25,29 L29,29 L29,26.8423237 L27.8083333,26.8423237 L27.8083333,26.7344398 Z M16,14.4356846 C14.4833333,14.4356846 13.2916667,13.2489627 13.2916667,11.7385892 C13.2916667,10.2282158 14.4833333,9.04149378 16,9.04149378 C17.5166667,9.04149378 18.7083333,10.2282158 18.7083333,11.7385892 C18.7083333,13.2489627 17.5166667,14.4356846 16,14.4356846 Z" id="Shape" fill="currentColor"></path>
</svg>
