<?xml version="1.0" encoding="UTF-8"?>
<svg width="32px" height="32px" viewBox="0 0 32 32" version="1.1" xmlns="http://www.w3.org/2000/svg" xmlns:xlink="http://www.w3.org/1999/xlink">
    <path d="M25.0593255,11.1133144 L30,15.0084986 L27.8667208,17.7025496 L16,8.37110482 L4.13327915,17.6997167 L2,15.0084986 L16,4 L21.6147907,8.41359773 L21.6147907,6.14730878 L25.0593255,6.14730878 L25.0593255,11.1133144 Z M25.4632263,23.4504249 C26.4481539,22.7832824 26.8810931,21.554423 26.5306569,20.4206188 C26.1802207,19.2868146 25.1283486,18.5131738 23.9372206,18.5131738 C22.7460927,18.5131738 21.6942206,19.2868146 21.3437844,20.4206188 C20.9933482,21.554423 21.4262874,22.7832824 22.411215,23.4504249 C21.8540806,23.6818468 21.3570643,24.0363905 20.9577408,24.4872521 C20.4195206,23.1519036 19.3647939,22.0881743 18.0308818,21.5354108 C19.3606612,20.6360805 19.9458288,18.9780102 19.4734817,17.4478092 C19.0011345,15.9176082 17.5817882,14.8732994 15.9744007,14.8732994 C14.3670131,14.8732994 12.9476668,15.9176082 12.4753196,17.4478092 C12.0029725,18.9780102 12.5881401,20.6360805 13.9179195,21.5354108 C12.5818045,22.0908034 11.5267436,23.1589545 10.9910605,24.4985836 C10.591737,24.0477219 10.0947207,23.6931782 9.53758635,23.4617564 C10.5232009,22.7950578 10.9568608,21.5660232 10.6066919,20.4318061 C10.256523,19.2975889 9.20444847,18.5235426 8.01300284,18.5235426 C6.82155722,18.5235426 5.76948265,19.2975889 5.41931378,20.4318061 C5.06914491,21.5660232 5.50280475,22.7950578 6.48841934,23.4617564 C5.00315778,24.0761484 4.0347782,25.5200454 4.03372613,27.121813 L4.03372613,28.4334278 C4.03372613,28.746337 4.28841989,29 4.60260057,29 L27.3575782,29 C27.6717589,29 27.9264527,28.746337 27.9264527,28.4334278 L27.9264527,27.121813 C27.92397,25.5179789 26.9518348,24.0735034 25.4632263,23.4617564 L25.4632263,23.4504249 Z" id="Shape" fill="currentColor"></path>
</svg>
