<?xml version="1.0" encoding="UTF-8"?>
<svg width="32px" height="32px" viewBox="0 0 32 32" version="1.1" xmlns="http://www.w3.org/2000/svg" xmlns:xlink="http://www.w3.org/1999/xlink">
    <path d="M14.6071429,10.4401786 L14.6071429,3 L22.6428571,3 L22.6428571,7.46428571 L16.3928571,7.46428571 L16.3928571,10.4401786 L23.5357143,12.8214286 L23.5357143,28 L18.1785714,28 L18.1785714,23.5357143 L12.8214286,23.5357143 L12.8214286,28 L7.46428571,28 L7.46428571,12.8214286 L14.6071429,10.4401786 Z M28,28 L25.3214286,28 L25.3214286,17.2857143 L28,18.1785714 L28,28 Z M5.67857143,28 L3,28 L3,18.1785714 L5.67857143,17.2857143 L5.67857143,28 Z M15.5,14.6071429 C16.9785714,14.6071429 18.1785714,15.8071429 18.1785714,17.2857143 C18.1785714,18.7642857 16.9785714,19.9642857 15.5,19.9642857 C14.0214286,19.9642857 12.8214286,18.7642857 12.8214286,17.2857143 C12.8214286,15.8071429 14.0214286,14.6071429 15.5,14.6071429 Z" id="Shape" fill="currentColor"></path>
</svg>
