<?xml version="1.0" encoding="UTF-8"?>
<svg width="32px" height="32px" viewBox="0 0 32 32" version="1.1" xmlns="http://www.w3.org/2000/svg" xmlns:xlink="http://www.w3.org/1999/xlink">
    <path d="M9.91869029,8.02409802 C13.5164459,5.32530066 18.4835541,5.32530066 22.0813097,8.02409802 C23.6854097,9.23376741 24.8912005,10.8887518 25.5457532,12.7791519 L25.5457532,12.7791519 L25.7530148,12.7791519 C27.5462752,12.7791519 29,14.2211761 29,16 C29,17.77883 27.5462752,19.2208541 25.7530148,19.2208541 L25.7530148,19.2208541 L25.5457532,19.2208541 C24.8911909,21.1112405 23.6854014,22.766212 22.0813097,23.9758758 C18.4835659,26.6747081 13.5164341,26.6747081 9.91869029,23.9758758 C8.31461691,22.7662084 7.10884933,21.1112359 6.45431175,19.2208541 L6.45431175,19.2208541 L6.24698515,19.2208541 C4.45372477,19.2208541 3,17.77883 3,16 C3,14.2211761 4.45372477,12.7791519 6.24698515,12.7791519 L6.24698515,12.7791519 L6.45431175,12.7791519 C7.10883981,10.8887564 8.31460862,9.23377107 9.91869029,8.02409802 Z M15.6301237,7.40193481 C13.8185523,7.43771609 12.2826753,8.04831169 10.8408538,9.14553454 C9.37660426,10.2578284 8.30263265,11.8055447 7.77321665,13.5663516 C7.71073284,13.7765424 7.51750844,13.9206735 7.29819973,13.9206789 L7.29819973,13.9206789 L6.73837363,13.9206789 C5.57436125,13.920679 4.63074279,14.8641703 4.63074279,16.0280259 C4.63074279,17.1918814 5.57436125,18.1353728 6.73837363,18.1353728 L6.73837363,18.1353728 L7.29819973,18.1353728 C7.51750912,18.1353762 7.71073461,18.279508 7.77321665,18.4897001 C8.30264742,20.2504982 9.37661623,21.7982083 10.8408538,22.910511 C13.9203407,25.2385194 18.1715149,25.2385194 21.2510017,22.910511 C22.7152433,21.7982125 23.7892306,20.2505179 24.3187008,18.4897311 C24.3811723,18.2795316 24.5744043,18.1353949 24.7937177,18.1354038 L24.7937177,18.1354038 L25.3535067,18.1354038 C26.5175191,18.1354038 27.4611376,17.1919124 27.4611376,16.0280568 C27.4611376,14.8642012 26.5175191,13.9207099 25.3535067,13.9207099 L25.3535067,13.9207099 L24.7937425,13.9207099 C24.5744291,13.9207187 24.381197,13.776582 24.3187256,13.5663826 C23.7892543,11.8055863 22.7152599,10.2578843 21.2510079,9.14558408 C20.3564919,8.46542658 19.4454547,7.96811265 18.3586983,7.68204239 C18.9378279,8.61704381 18.7551037,10.0313501 18.0653491,10.8880269 C17.3755944,11.7447037 16.2202574,11.9650878 15.1830384,11.5990344 C14.1458195,11.2329809 13.2350965,10.2523409 13.2359991,9.15255563 C13.2359991,8.87892134 13.6752857,8.54925617 13.9489569,8.54925617 C14.222628,8.54925617 14.6619149,8.87892134 14.6619149,9.15255563 C14.6619149,10.0368692 15.1614537,10.538067 16.0458865,10.5380727 C16.9303192,10.5380784 17.4298671,9.92904965 17.4298785,9.04473606 C17.4298899,8.16042247 16.8216448,7.44353328 15.9372121,7.44351618 C15.8689227,7.44353281 15.6926565,7.42937358 15.6301237,7.40193481 Z M16,15.7707875 C18.1841407,15.7602895 20.3545222,16.1140706 22.4204198,16.8173423 C22.6682683,16.9028976 22.8128016,17.1584455 22.7572322,17.4128572 C22.0653855,20.5653166 19.2524665,22.813515 15.9999935,22.813515 C12.7475205,22.813515 9.93460149,20.5653166 9.24275484,17.4128572 C9.1871722,17.1584333 9.33171467,16.902868 9.57958023,16.8173165 C11.6454794,16.1140536 13.8158607,15.7602812 16,15.7707875 Z M18.1211011,16.9141611 C16.7111026,16.7631964 15.2888584,16.7631964 13.8788989,16.9141611 L13.8788989,16.9141611 L13.8788989,18.8219192 C13.8788989,19.1063802 14.1113712,19.3369813 14.3981403,19.3369813 L14.3981403,19.3369813 L17.6018597,19.3369813 C17.8886288,19.3369813 18.1211011,19.1063802 18.1211011,18.8219192 L18.1211011,18.8219192 Z" id="Combined-Shape" fill="currentColor"></path>
</svg>
