<?xml version="1.0" encoding="UTF-8"?>
<svg width="32px" height="32px" viewBox="0 0 32 32" version="1.1" xmlns="http://www.w3.org/2000/svg" xmlns:xlink="http://www.w3.org/1999/xlink">
    <path d="M21.99984,9.33306972 C22.93728,9.33334971 23.19516,9.42658813 23.99988,9.99973843 L23.99988,9.99973843 L28.4166,13.1664848 C29.58868,14.0453899 28.54148,15.4722458 27.333,14.6664194 L27.333,14.6664194 L23.33292,12.0000246 C23.33292,12.0000246 24.66684,15.3328081 24.66684,17.3328143 L24.66684,17.3328143 L24.6660832,17.5928602 C24.6616382,18.8143038 24.6750952,20.6661579 25.99992,20.6661579 L25.99992,20.6661579 L29.00012,20.6661579 C30,20.6661579 30,21.6660209 30,21.6660209 C30,21.6660209 30,22.666164 29.00012,22.666164 L29.00012,22.666164 L25.33324,22.666164 C22.66708,22.665604 22.00012,18.6661517 22.00012,18.6661517 L22.00012,18.6661517 L18.37524,27.2496864 C18.16636,27.7421981 17.75896,27.9939138 17.33308,27.9998981 C16.68404,28.0084736 16.0406,27.4753626 16.37492,26.5827377 L16.37492,26.5827377 L19.29196,18.8330289 C19.29,18.7854297 19.30988,18.7291506 19.33312,18.6664317 C20.03452,16.7969034 18.16692,12.7915712 18.16692,12.7915712 L18.16692,12.7915712 L15.33304,14.6664194 C14.23628,15.3921671 13.15744,13.9196721 14.33316,13.0830462 L14.33316,13.0830462 L18.66672,9.99973843 C19.35132,9.51254668 20.16976,9.33306972 20.66676,9.33306972 L20.66676,9.33306972 Z M6.66676,11.9997446 L6.66676,12.0000246 L8.6668,12.0000246 C9.99988,12.0000246 11.33324,14.6664194 11.33324,17.3328143 C11.33324,17.999763 11.33324,19.3331004 11.99992,19.3331004 L11.99992,19.3331004 L15.3336,19.3331004 C16.66724,19.3331004 16.66724,21.3331066 15.3336,21.3331066 L15.3336,21.3331066 L11.33352,21.3331066 C10.00016,21.3331066 9.33348,20.0000491 9.33348,20.0000491 L9.33348,20.0000491 L7.33344,25.3331188 C6.85912,26.5978574 4.77928,26.1434251 5.3334,24.6664501 L5.3334,24.6664501 L7.33344,19.3331004 C7.83324,17.999763 7.33344,14.6664194 6.00008,14.6664194 L6.00008,14.6664194 L3.5834,17.0827785 C3.0192,17.647249 2,17.3328143 2,16.6664256 C2,16.1909936 2.13524,15.8645191 2.50008,15.4996853 L2.50008,15.4996853 L5.42863198,12.5714734 C5.74502777,12.2603021 6.06068727,11.9997446 6.66676,11.9997446 L6.66676,11.9997446 Z M8.33332,6.66639486 C9.6258,6.66639486 10.66684,7.70685725 10.66684,8.99959536 C10.66684,10.2923335 9.62608,11.3327959 8.33332,11.3327959 C7.04084,11.3327959 6.00008,10.2923335 6.00008,8.99959536 C6.00008,7.70685725 7.04084,6.66639486 8.33332,6.66639486 Z M18.99992,4 C20.2924,4 21.33316,5.04046239 21.33316,6.3332005 C21.33316,7.62593862 20.2924,8.666401 18.99992,8.666401 C17.70772,8.666401 16.66696,7.62593862 16.66696,6.3332005 C16.66696,5.04046239 17.70772,4 18.99992,4 Z" id="Combined-Shape" fill="currentColor"></path>
</svg>
