<?xml version="1.0" encoding="UTF-8"?>
<svg width="32px" height="32px" viewBox="0 0 32 32" version="1.1" xmlns="http://www.w3.org/2000/svg" xmlns:xlink="http://www.w3.org/1999/xlink">
    <path fill="currentColor" d="M14.0375,11.7 L15.9625,13.3 L10,20.45 L10,25 L-3.9879211e-13,25 L-3.9879211e-13,20 C0.0171352953,17.768656 1.5107488,15.8187577 3.66062739,15.2210856 C5.81050597,14.6234136 8.09618865,15.5226573 9.2625,17.425 L9.2625,17.425 L14.0375,11.7 Z M5,6.25 C7.07106781,6.25 8.75,7.92893219 8.75,10 C8.75,12.0710678 7.07106781,13.75 5,13.75 C2.92893219,13.75 1.25,12.0710678 1.25,10 C1.25,7.92893219 2.92893219,6.25 5,6.25 Z M25,10 L25,12.5 L17.5,12.5 L17.5,10 L25,10 Z M25,5 L25,7.5 L12.5,7.5 L12.5,5 L25,5 Z M25,-3.7947423e-13 L25,2.5 L7.5,2.5 L7.5,-3.7947423e-13 L25,-3.7947423e-13 Z" id="Combined-Shape"></path>
</svg>
