<?xml version="1.0" encoding="UTF-8"?>
<svg width="32px" height="32px" viewBox="0 0 32 32" version="1.1" xmlns="http://www.w3.org/2000/svg" xmlns:xlink="http://www.w3.org/1999/xlink">
    <path d="M26.0555556,13.4039845 L26.0555556,11.7576093 L28,11.7576093 L28,8.72495849 L15.5,3 L3,8.72495849 L3,11.7576093 L4.94444444,11.7576093 L4.94444444,13.4039845 L5.77777778,13.4039845 L5.77777778,23.4482568 L4.94444444,23.4482568 L4.94444444,25.3713337 L3.27777778,25.3713337 L3.27777778,28 L27.7222222,28 L27.7222222,25.3713337 L26.0555556,25.3713337 L26.0555556,23.4482568 L25.2222222,23.4482568 L25.2222222,13.4039845 L26.0555556,13.4039845 Z M21.0555556,25.3741007 L18,25.3741007 L18,23.4510238 L17.1666667,23.4510238 L17.1666667,13.4067515 L18,13.4067515 L18,11.7603763 L21.0555556,11.7603763 L21.0555556,13.4067515 L21.8888889,13.4067515 L21.8888889,23.4510238 L21.0555556,23.4510238 L21.0555556,25.3741007 Z M15.5,6.36192584 C16.3277778,6.36192584 17,7.031544 17,7.85611511 C17,8.68068622 16.3277778,9.35030437 15.5,9.35030437 C14.6722222,9.35030437 14,8.68068622 14,7.85611511 C14,7.031544 14.6722222,6.36192584 15.5,6.36192584 Z M9.11111111,13.4039845 L9.94444444,13.4039845 L9.94444444,11.7576093 L13,11.7576093 L13,13.4039845 L13.8333333,13.4039845 L13.8333333,23.4482568 L13,23.4482568 L13,25.3713337 L9.94444444,25.3713337 L9.94444444,23.4482568 L9.11111111,23.4482568 L9.11111111,13.4039845 Z" id="Shape" fill="currentColor"></path>
</svg>
