<?xml version="1.0" encoding="UTF-8"?>
<svg width="32px" height="32px" viewBox="0 0 32 32" version="1.1" xmlns="http://www.w3.org/2000/svg" xmlns:xlink="http://www.w3.org/1999/xlink">
    <path d="M10.7126584,14.8984954 C11.1076622,15.2925143 12.6290704,16.8971595 12.6290704,16.8971595 L13.4725956,16.0278194 L12.1505302,14.6626746 L14.688376,11.9689932 C14.688376,11.9689932 13.5429284,10.852864 14.0441936,11.2974126 C14.5235077,9.51849161 14.0866889,7.53372551 12.7345814,6.13562857 C11.3942,4.74850005 9.48951406,4.29368613 7.77828456,4.77118684 L10.6782073,7.76441361 L9.91531042,10.7012515 L7.07619899,11.4849302 L4.17775373,8.49092997 C3.71532519,10.258906 4.15502864,12.2253211 5.49836503,13.6131762 C6.90767218,15.0691385 8.93693564,15.4968595 10.7126584,14.8984954 Z M20.3812095,17.8096934 L16.8840086,21.2621168 L22.6516309,27.2339224 C23.122127,27.7216884 23.7421068,27.9648683 24.3606325,27.9648683 C24.9762502,27.9648683 25.5947759,27.7217118 26.0682035,27.2339224 C27.0121271,26.2583904 27.0121271,24.679385 26.0682035,23.7038764 L20.3812095,17.8096934 Z M28,7.79298303 L24.3269084,4 L13.4997062,15.1863223 L14.8217715,16.5514671 L8.341135,23.245383 L6.86004096,24.0363504 L4.7677148,27.4477829 L5.3005231,28 L8.60349366,25.8380285 L9.36932204,24.3073263 L15.849982,17.6148636 L17.1727744,18.9800084 L28,7.79298303 Z" id="Shape" fill="currentColor"></path>
</svg>
